<svg width="43" height="43" viewBox="0 0 43 43" fill="none" xmlns="http://www.w3.org/2000/svg">
<path d="M41.9987 31.6964V37.8685C42.0011 38.4415 41.8835 39.0087 41.6535 39.5337C41.4234 40.0587 41.0861 40.5299 40.6631 40.9173C40.24 41.3047 39.7405 41.5996 39.1967 41.7831C38.6528 41.9667 38.0765 42.0349 37.5047 41.9833C31.1612 41.2954 25.0679 39.1321 19.7143 35.6671C14.7334 32.5084 10.5105 28.2938 7.34544 23.3228C3.86151 17.9555 1.69339 11.8447 1.01673 5.4853C0.965217 4.91636 1.03297 4.34296 1.21566 3.80158C1.39836 3.26021 1.69201 2.76274 2.07791 2.34083C2.4638 1.91893 2.9335 1.58184 3.45708 1.35103C3.98066 1.12022 4.54667 1.00074 5.11906 1.0002H11.3035C12.3039 0.990372 13.2738 1.34394 14.0324 1.99501C14.7909 2.64608 15.2864 3.55022 15.4264 4.5389C15.6874 6.51413 16.1715 8.45354 16.8694 10.3202C17.1468 11.0565 17.2068 11.8568 17.0424 12.6262C16.878 13.3956 16.496 14.1019 15.9418 14.6612L13.3237 17.2741C16.2583 22.4249 20.5315 26.6896 25.6925 29.6184L28.3106 27.0055C28.8711 26.4524 29.5787 26.0712 30.3496 25.9071C31.1205 25.743 31.9224 25.8029 32.6603 26.0797C34.5306 26.7762 36.4739 27.2594 38.453 27.5199C39.4544 27.6609 40.3689 28.1643 41.0227 28.9343C41.6764 29.7044 42.0238 30.6874 41.9987 31.6964Z" stroke="#FF4500" stroke-width="2" stroke-linecap="round" stroke-linejoin="round"/>
</svg>
