<svg width="568" height="529" viewBox="0 0 568 529" fill="none" xmlns="http://www.w3.org/2000/svg">
<path fill-rule="evenodd" clip-rule="evenodd" d="M160.875 84.6853H162.69V113.675L165.874 117.839L164.432 118.941L160.875 114.29V84.6853Z" fill="white"/>
<path fill-rule="evenodd" clip-rule="evenodd" d="M161.133 396.065H162.948V426.461L165.717 432.503L164.067 433.259L161.133 426.857V396.065Z" fill="white"/>
<path fill-rule="evenodd" clip-rule="evenodd" d="M235.024 109.834C237.641 109.834 240.339 107.11 240.339 102.964C240.339 98.8177 237.641 96.0931 235.024 96.0931C232.408 96.0931 229.709 98.8177 229.709 102.964C229.709 107.11 232.408 109.834 235.024 109.834ZM235.024 111.649C238.962 111.649 242.154 107.76 242.154 102.964C242.154 98.1668 238.962 94.2782 235.024 94.2782C231.087 94.2782 227.895 98.1668 227.895 102.964C227.895 107.76 231.087 111.649 235.024 111.649Z" fill="white"/>
<path fill-rule="evenodd" clip-rule="evenodd" d="M493.515 348.101C494.531 348.101 495.719 347.095 495.719 345.378C495.719 343.661 494.531 342.656 493.515 342.656C492.498 342.656 491.311 343.661 491.311 345.378C491.311 347.095 492.498 348.101 493.515 348.101ZM493.515 349.915C495.734 349.915 497.533 347.884 497.533 345.378C497.533 342.872 495.734 340.841 493.515 340.841C491.295 340.841 489.496 342.872 489.496 345.378C489.496 347.884 491.295 349.915 493.515 349.915Z" fill="white"/>
<path fill-rule="evenodd" clip-rule="evenodd" d="M200.025 38.2765C201.198 38.2765 202.748 36.9604 202.748 34.5171C202.748 32.0739 201.198 30.7577 200.025 30.7577C198.853 30.7577 197.303 32.0739 197.303 34.5171C197.303 36.9604 198.853 38.2765 200.025 38.2765ZM200.025 40.0914C202.531 40.0914 204.563 37.5957 204.563 34.5171C204.563 31.4385 202.531 28.9429 200.025 28.9429C197.52 28.9429 195.488 31.4385 195.488 34.5171C195.488 37.5957 197.52 40.0914 200.025 40.0914Z" fill="white"/>
<path fill-rule="evenodd" clip-rule="evenodd" d="M200.025 63.1661C201.198 63.1661 202.748 61.85 202.748 59.4068C202.748 56.9635 201.198 55.6474 200.025 55.6474C198.853 55.6474 197.303 56.9635 197.303 59.4068C197.303 61.85 198.853 63.1661 200.025 63.1661ZM200.025 64.981C202.531 64.981 204.563 62.4853 204.563 59.4068C204.563 56.3282 202.531 53.8325 200.025 53.8325C197.52 53.8325 195.488 56.3282 195.488 59.4068C195.488 62.4853 197.52 64.981 200.025 64.981Z" fill="white"/>
<path fill-rule="evenodd" clip-rule="evenodd" d="M4.88618 83.2119C5.03941 83.0161 5.18397 82.6723 5.18397 82.2222C5.18397 81.7721 5.03941 81.4282 4.88618 81.2324C4.8117 81.1372 4.74699 81.0911 4.71081 81.0715C4.68025 81.055 4.66777 81.0554 4.66566 81.0555C4.66556 81.0555 4.66549 81.0555 4.66544 81.0555C4.66538 81.0555 4.66531 81.0555 4.66521 81.0555C4.6631 81.0554 4.65062 81.055 4.62006 81.0715C4.58388 81.0911 4.51917 81.1372 4.44469 81.2324C4.29146 81.4282 4.1469 81.7721 4.1469 82.2222C4.1469 82.6723 4.29146 83.0161 4.44469 83.2119C4.51917 83.3071 4.58388 83.3533 4.62006 83.3728C4.65062 83.3893 4.6631 83.3889 4.66521 83.3889C4.66531 83.3889 4.66538 83.3889 4.66544 83.3889C4.66549 83.3889 4.66556 83.3889 4.66566 83.3889C4.66777 83.3889 4.68025 83.3893 4.71081 83.3728C4.74699 83.3533 4.8117 83.3071 4.88618 83.2119ZM4.66544 85.2037C5.95414 85.2037 6.99884 83.8688 6.99884 82.2222C6.99884 80.5755 5.95414 79.2406 4.66544 79.2406C3.37673 79.2406 2.33203 80.5755 2.33203 82.2222C2.33203 83.8688 3.37673 85.2037 4.66544 85.2037Z" fill="white"/>
<path fill-rule="evenodd" clip-rule="evenodd" d="M4.88618 103.435C5.03941 103.239 5.18397 102.895 5.18397 102.445C5.18397 101.995 5.03941 101.651 4.88618 101.455C4.8117 101.36 4.74699 101.314 4.71081 101.294C4.68025 101.278 4.66777 101.278 4.66566 101.278C4.66556 101.278 4.66549 101.278 4.66544 101.278C4.66538 101.278 4.66531 101.278 4.66521 101.278C4.6631 101.278 4.65062 101.278 4.62006 101.294C4.58388 101.314 4.51917 101.36 4.44469 101.455C4.29146 101.651 4.1469 101.995 4.1469 102.445C4.1469 102.895 4.29146 103.239 4.44469 103.435C4.51917 103.53 4.58388 103.576 4.62006 103.596C4.65062 103.612 4.6631 103.612 4.66521 103.612C4.66531 103.612 4.66538 103.612 4.66544 103.612C4.66549 103.612 4.66556 103.612 4.66566 103.612C4.66777 103.612 4.68025 103.612 4.71081 103.596C4.74699 103.576 4.8117 103.53 4.88618 103.435ZM4.66544 105.427C5.95414 105.427 6.99884 104.092 6.99884 102.445C6.99884 100.798 5.95414 99.4634 4.66544 99.4634C3.37673 99.4634 2.33203 100.798 2.33203 102.445C2.33203 104.092 3.37673 105.427 4.66544 105.427Z" fill="white"/>
<path fill-rule="evenodd" clip-rule="evenodd" d="M177.986 63.1661C176.814 63.1661 175.264 61.85 175.264 59.4068C175.264 56.9635 176.814 55.6474 177.986 55.6474C179.158 55.6474 180.709 56.9635 180.709 59.4068C180.709 61.85 179.158 63.1661 177.986 63.1661ZM177.986 64.981C175.48 64.981 173.449 62.4853 173.449 59.4068C173.449 56.3282 175.48 53.8325 177.986 53.8325C180.492 53.8325 182.523 56.3282 182.523 59.4068C182.523 62.4853 180.492 64.981 177.986 64.981Z" fill="white"/>
<path fill-rule="evenodd" clip-rule="evenodd" d="M177.986 38.2765C176.814 38.2765 175.264 36.9604 175.264 34.5171C175.264 32.0739 176.814 30.7577 177.986 30.7577C179.158 30.7577 180.709 32.0739 180.709 34.5171C180.709 36.9604 179.158 38.2765 177.986 38.2765ZM177.986 40.0914C175.48 40.0914 173.449 37.5957 173.449 34.5171C173.449 31.4385 175.48 28.9429 177.986 28.9429C180.492 28.9429 182.523 31.4385 182.523 34.5171C182.523 37.5957 180.492 40.0914 177.986 40.0914Z" fill="white"/>
<path fill-rule="evenodd" clip-rule="evenodd" d="M237.618 412.14C240.235 412.14 242.933 409.415 242.933 405.269C242.933 401.123 240.235 398.398 237.618 398.398C235.001 398.398 232.303 401.123 232.303 405.269C232.303 409.415 235.001 412.14 237.618 412.14ZM237.618 413.954C241.556 413.954 244.748 410.066 244.748 405.269C244.748 400.472 241.556 396.583 237.618 396.583C233.68 396.583 230.488 400.472 230.488 405.269C230.488 410.066 233.68 413.954 237.618 413.954Z" fill="white"/>
<path fill-rule="evenodd" clip-rule="evenodd" d="M175.817 377.813C176.561 376.567 177.079 374.729 177.079 372.601C177.079 370.474 176.561 368.636 175.817 367.39C175.051 366.107 174.248 365.731 173.709 365.731C173.169 365.731 172.366 366.107 171.6 367.39C170.857 368.636 170.338 370.474 170.338 372.601C170.338 374.729 170.857 376.567 171.6 377.813C172.366 379.096 173.169 379.472 173.709 379.472C174.248 379.472 175.051 379.096 175.817 377.813ZM173.709 381.287C176.573 381.287 178.894 377.398 178.894 372.601C178.894 367.805 176.573 363.916 173.709 363.916C170.845 363.916 168.523 367.805 168.523 372.601C168.523 377.398 170.845 381.287 173.709 381.287Z" fill="white"/>
<path fill-rule="evenodd" clip-rule="evenodd" d="M21.987 391.895C22.6216 390.89 23.0734 389.39 23.0734 387.639C23.0734 385.888 22.6216 384.388 21.987 383.383C21.3377 382.355 20.6679 382.065 20.2215 382.065C19.7751 382.065 19.1053 382.355 18.456 383.383C17.8214 384.388 17.3696 385.888 17.3696 387.639C17.3696 389.39 17.8214 390.89 18.456 391.895C19.1053 392.923 19.7751 393.213 20.2215 393.213C20.6679 393.213 21.3377 392.923 21.987 391.895ZM20.2215 395.028C22.7989 395.028 24.8883 391.72 24.8883 387.639C24.8883 383.558 22.7989 380.25 20.2215 380.25C17.6441 380.25 15.5547 383.558 15.5547 387.639C15.5547 391.72 17.6441 395.028 20.2215 395.028Z" fill="white"/>
<path fill-rule="evenodd" clip-rule="evenodd" d="M175.817 450.148C176.561 448.903 177.079 447.065 177.079 444.937C177.079 442.809 176.561 440.971 175.817 439.726C175.051 438.443 174.248 438.066 173.709 438.066C173.169 438.066 172.366 438.443 171.6 439.726C170.857 440.971 170.338 442.809 170.338 444.937C170.338 447.065 170.857 448.903 171.6 450.148C172.366 451.431 173.169 451.807 173.709 451.807C174.248 451.807 175.051 451.431 175.817 450.148ZM173.709 453.622C176.573 453.622 178.894 449.734 178.894 444.937C178.894 440.14 176.573 436.251 173.709 436.251C170.845 436.251 168.523 440.14 168.523 444.937C168.523 449.734 170.845 453.622 173.709 453.622Z" fill="white"/>
<path fill-rule="evenodd" clip-rule="evenodd" d="M235.026 103.612C235.297 103.612 235.674 103.352 235.674 102.834C235.674 102.316 235.297 102.056 235.026 102.056C234.754 102.056 234.377 102.316 234.377 102.834C234.377 103.352 234.754 103.612 235.026 103.612ZM235.026 105.427C236.386 105.427 237.489 104.266 237.489 102.834C237.489 101.402 236.386 100.241 235.026 100.241C233.665 100.241 232.562 101.402 232.562 102.834C232.562 104.266 233.665 105.427 235.026 105.427Z" fill="white"/>
<path fill-rule="evenodd" clip-rule="evenodd" d="M493.516 344.989C493.301 344.989 493.127 345.164 493.127 345.378C493.127 345.593 493.301 345.767 493.516 345.767C493.731 345.767 493.905 345.593 493.905 345.378C493.905 345.164 493.731 344.989 493.516 344.989ZM493.516 346.804C494.303 346.804 494.942 346.166 494.942 345.378C494.942 344.591 494.303 343.952 493.516 343.952C492.728 343.952 492.09 344.591 492.09 345.378C492.09 346.166 492.728 346.804 493.516 346.804Z" fill="white"/>
<path fill-rule="evenodd" clip-rule="evenodd" d="M347.807 73.0183C348.078 73.0183 348.455 72.7589 348.455 72.2405C348.455 71.7221 348.078 71.4627 347.807 71.4627C347.535 71.4627 347.159 71.7221 347.159 72.2405C347.159 72.7589 347.535 73.0183 347.807 73.0183ZM347.807 74.8332C349.167 74.8332 350.27 73.6724 350.27 72.2405C350.27 70.8086 349.167 69.6478 347.807 69.6478C346.446 69.6478 345.344 70.8086 345.344 72.2405C345.344 73.6724 346.446 74.8332 347.807 74.8332Z" fill="white"/>
<path fill-rule="evenodd" clip-rule="evenodd" d="M445.033 98.1671C445.305 98.1671 445.682 97.9077 445.682 97.3893C445.682 96.8709 445.305 96.6115 445.033 96.6115C444.762 96.6115 444.385 96.8709 444.385 97.3893C444.385 97.9077 444.762 98.1671 445.033 98.1671ZM445.033 99.982C446.394 99.982 447.496 98.8212 447.496 97.3893C447.496 95.9574 446.394 94.7966 445.033 94.7966C443.673 94.7966 442.57 95.9574 442.57 97.3893C442.57 98.8212 443.673 99.982 445.033 99.982Z" fill="white"/>
<path fill-rule="evenodd" clip-rule="evenodd" d="M513.998 115.797C514.27 115.797 514.646 115.538 514.646 115.02C514.646 114.501 514.27 114.242 513.998 114.242C513.727 114.242 513.35 114.501 513.35 115.02C513.35 115.538 513.727 115.797 513.998 115.797ZM513.998 117.612C515.358 117.612 516.461 116.451 516.461 115.02C516.461 113.588 515.358 112.427 513.998 112.427C512.638 112.427 511.535 113.588 511.535 115.02C511.535 116.451 512.638 117.612 513.998 117.612Z" fill="white"/>
<path fill-rule="evenodd" clip-rule="evenodd" d="M200.025 34.3874C199.953 34.3874 199.895 34.4454 199.895 34.517C199.895 34.5886 199.953 34.6467 200.025 34.6467C200.097 34.6467 200.155 34.5886 200.155 34.517C200.155 34.4454 200.097 34.3874 200.025 34.3874ZM200.025 36.2023C200.956 36.2023 201.71 35.4478 201.71 34.517C201.71 33.5863 200.956 32.8318 200.025 32.8318C199.094 32.8318 198.34 33.5863 198.34 34.517C198.34 35.4478 199.094 36.2023 200.025 36.2023Z" fill="white"/>
<path fill-rule="evenodd" clip-rule="evenodd" d="M200.025 59.277C199.953 59.277 199.895 59.3351 199.895 59.4067C199.895 59.4783 199.953 59.5363 200.025 59.5363C200.097 59.5363 200.155 59.4783 200.155 59.4067C200.155 59.3351 200.097 59.277 200.025 59.277ZM200.025 61.0919C200.956 61.0919 201.71 60.3374 201.71 59.4067C201.71 58.4759 200.956 57.7214 200.025 57.7214C199.094 57.7214 198.34 58.4759 198.34 59.4067C198.34 60.3374 199.094 61.0919 200.025 61.0919Z" fill="white"/>
<path fill-rule="evenodd" clip-rule="evenodd" d="M177.987 59.277C178.058 59.277 178.116 59.3351 178.116 59.4067C178.116 59.4783 178.058 59.5363 177.987 59.5363C177.915 59.5363 177.857 59.4783 177.857 59.4067C177.857 59.3351 177.915 59.277 177.987 59.277ZM177.987 61.0919C177.056 61.0919 176.301 60.3374 176.301 59.4067C176.301 58.4759 177.056 57.7214 177.987 57.7214C178.917 57.7214 179.672 58.4759 179.672 59.4067C179.672 60.3374 178.917 61.0919 177.987 61.0919Z" fill="white"/>
<path fill-rule="evenodd" clip-rule="evenodd" d="M177.987 34.3874C178.058 34.3874 178.116 34.4454 178.116 34.517C178.116 34.5886 178.058 34.6467 177.987 34.6467C177.915 34.6467 177.857 34.5886 177.857 34.517C177.857 34.4454 177.915 34.3874 177.987 34.3874ZM177.987 36.2023C177.056 36.2023 176.301 35.4478 176.301 34.517C176.301 33.5863 177.056 32.8318 177.987 32.8318C178.917 32.8318 179.672 33.5863 179.672 34.517C179.672 35.4478 178.917 36.2023 177.987 36.2023Z" fill="white"/>
<path fill-rule="evenodd" clip-rule="evenodd" d="M237.619 405.917C237.891 405.917 238.267 405.658 238.267 405.139C238.267 404.621 237.891 404.362 237.619 404.362C237.348 404.362 236.971 404.621 236.971 405.139C236.971 405.658 237.348 405.917 237.619 405.917ZM237.619 407.732C238.98 407.732 240.082 406.571 240.082 405.139C240.082 403.707 238.98 402.547 237.619 402.547C236.259 402.547 235.156 403.707 235.156 405.139C235.156 406.571 236.259 407.732 237.619 407.732Z" fill="white"/>
<path fill-rule="evenodd" clip-rule="evenodd" d="M168.3 28.6413L13.2581 74.79L12.6664 72.8021L167.708 26.6533L168.3 28.6413ZM12.4273 404.165L5.70248 114.995L3.62891 115.044L10.3859 405.595L191.869 476.367L192.622 474.435L12.4273 404.165Z" fill="white"/>
<path fill-rule="evenodd" clip-rule="evenodd" d="M554.427 122.76L208.954 27.2428L209.507 25.2437L554.98 120.761L554.427 122.76ZM193.934 473.427V73.796H191.859V476.337L562.076 348.586L566.5 149.655L564.426 149.609L560.035 347.096L193.934 473.427Z" fill="white"/>
<path fill-rule="evenodd" clip-rule="evenodd" d="M207.545 65.5116V3.46992C207.545 2.1707 206.113 1.38149 205.015 2.07553L175.363 20.8132C172.882 22.381 171.377 25.1111 171.377 28.0459V66.6742C171.377 71.9793 176.156 76.0056 181.384 75.1061L191.14 73.4276C192.864 73.131 194.631 73.209 196.322 73.6561L196.802 73.783C202.229 75.2184 207.545 71.1257 207.545 65.5116ZM209.36 3.46992V65.5116C209.36 72.3166 202.917 77.2774 196.338 75.5375L195.858 75.4107C194.419 75.0301 192.915 74.9638 191.448 75.2161L181.692 76.8947C175.354 77.985 169.562 73.1046 169.562 66.6742V28.0459C169.562 24.4885 171.386 21.1793 174.393 19.279L204.045 0.54132C206.352 -0.916369 209.36 0.741187 209.36 3.46992Z" fill="white"/>
<path fill-rule="evenodd" clip-rule="evenodd" d="M25.8491 56.4512L25.1569 58.1289C24.8938 58.0203 24.5934 58.0544 24.3612 58.2191L5.41996 71.6575C3.15855 73.2619 1.81487 75.8627 1.81487 78.6355V109.707C1.81487 111.641 3.171 113.309 5.06376 113.704C7.59998 114.234 9.98178 112.298 9.98178 109.707V79.7148C9.98178 76.4362 11.3029 73.296 13.6467 71.0035L25.4204 59.4876L26.6351 60.7295L25.4204 59.4876C25.8458 59.0715 25.7071 58.3559 25.157 58.1289L25.8491 56.4512ZM0 109.707V78.6355C0 75.2746 1.62871 72.122 4.36981 70.1773L23.3111 56.7389C24.0516 56.2135 25.0098 56.1049 25.8491 56.4512C27.6039 57.1752 28.0465 59.4577 26.6894 60.785L14.9158 72.3009C12.921 74.252 11.7967 76.9245 11.7967 79.7148V109.707C11.7967 113.449 8.35628 116.246 4.69284 115.481C1.95886 114.91 0 112.5 0 109.707Z" fill="white"/>
<path fill-rule="evenodd" clip-rule="evenodd" d="M566.111 150.669V119.654C566.111 116.433 563.856 113.653 560.705 112.987C556.093 112.013 551.91 115.904 552.546 120.574L552.621 121.119L550.822 121.364L550.748 120.82C549.942 114.905 555.24 109.978 561.08 111.212C565.07 112.054 567.926 115.576 567.926 119.654V150.669H566.111Z" fill="white"/>
<path fill-rule="evenodd" clip-rule="evenodd" d="M568 150.795C564.136 151.117 560.843 148.025 560.921 144.149L561.257 127.502C561.331 123.872 557.614 121.391 554.289 122.851L553.559 121.189C558.098 119.196 563.172 122.583 563.072 127.539L562.736 144.185C562.679 146.985 565.058 149.219 567.849 148.987L568 150.795Z" fill="white"/>
<path fill-rule="evenodd" clip-rule="evenodd" d="M208.706 3.50316L170.853 29.6891L169.82 28.1966L207.673 2.01062L208.706 3.50316Z" fill="white"/>
<path fill-rule="evenodd" clip-rule="evenodd" d="M184.988 35.943V18.7018H186.803V35.943H184.988Z" fill="white"/>
<path fill-rule="evenodd" clip-rule="evenodd" d="M222.062 65.6478L346.251 95.1164V112.816H344.437V96.551L223.877 67.9437V436.302L344.437 397.478V383.75H346.251V398.8L222.062 438.793V65.6478ZM344.437 242.06V131.353H346.251V242.06H344.437ZM344.437 367.675V259.302H346.251V367.675H344.437Z" fill="white"/>
<path fill-rule="evenodd" clip-rule="evenodd" d="M361.031 98.0397L485.22 129.35V223.134H483.405V130.764L362.846 100.369V386.034L483.405 350.275V258.913H485.22V351.63L361.031 388.466V98.0397Z" fill="white"/>
<path fill-rule="evenodd" clip-rule="evenodd" d="M164.247 43.8394V80.2778H162.432V46.1957L11.3813 86.0813L10.918 84.3265L164.247 43.8394Z" fill="white"/>
<path fill-rule="evenodd" clip-rule="evenodd" d="M166.319 186.059V396.065H164.504V186.059H166.319Z" fill="white"/>
<path fill-rule="evenodd" clip-rule="evenodd" d="M166.58 433.659L166.583 464.252L164.768 464.252L164.766 433.659L166.58 433.659Z" fill="white"/>
<path fill-rule="evenodd" clip-rule="evenodd" d="M303.332 125.072L291.403 121.202C271.343 114.694 250.989 130.317 252.088 151.377L254.638 200.224C255.544 217.571 270.915 230.546 288.168 228.527L298.617 227.304C314.05 225.498 325.567 212.232 325.187 196.698L324.117 152.944C323.805 140.184 315.473 129.011 303.332 125.072ZM291.963 119.476C270.692 112.575 249.11 129.14 250.276 151.472L252.826 200.318C253.786 218.712 270.085 232.47 288.379 230.33L298.828 229.107C315.193 227.192 327.404 213.125 327.001 196.653L325.931 152.899C325.6 139.369 316.765 127.522 303.892 123.346L291.963 119.476Z" fill="white"/>
<path fill-rule="evenodd" clip-rule="evenodd" d="M239.563 246.338H230.488V244.523H239.563C244.216 244.523 247.989 248.296 247.989 252.95V277.061C247.989 281.715 244.216 285.488 239.563 285.488H230.488V283.673H239.563C243.214 283.673 246.174 280.713 246.174 277.061V252.95C246.174 249.298 243.214 246.338 239.563 246.338Z" fill="white"/>
<path fill-rule="evenodd" clip-rule="evenodd" d="M351.307 114.76H343.01V129.279H351.307V114.76ZM341.195 112.945V131.094H353.122V112.945H341.195Z" fill="white"/>
<path fill-rule="evenodd" clip-rule="evenodd" d="M351.565 243.357H343.268V257.876H351.565V243.357ZM341.453 241.542V259.69H353.379V241.542H341.453Z" fill="white"/>
<path fill-rule="evenodd" clip-rule="evenodd" d="M341.194 368.673V383.131L349.49 382.139V367.861L341.194 368.673ZM339.379 367.027V385.176L351.305 383.75V365.86L339.379 367.027Z" fill="white"/>
<path fill-rule="evenodd" clip-rule="evenodd" d="M351.305 119.168H346.12V125.131H351.305V119.168ZM344.305 117.353V126.946H353.12V117.353H344.305Z" fill="white"/>
<path fill-rule="evenodd" clip-rule="evenodd" d="M351.567 247.764H346.381V253.727H351.567V247.764ZM344.566 245.949V255.542H353.381V245.949H344.566Z" fill="white"/>
<path fill-rule="evenodd" clip-rule="evenodd" d="M344.307 373.002V379.213H349.492V372.24L344.307 373.002ZM342.492 371.435V381.028H351.307V370.138L342.492 371.435Z" fill="white"/>
<path fill-rule="evenodd" clip-rule="evenodd" d="M484.828 224.949H465.123V257.876H484.828V224.949ZM463.309 223.134V259.69H486.643V223.134H463.309Z" fill="white"/>
<path fill-rule="evenodd" clip-rule="evenodd" d="M470.053 228.06H468.756V254.505H470.053V228.06ZM466.941 226.245V256.32H471.867V226.245H466.941Z" fill="white"/>
<path fill-rule="evenodd" clip-rule="evenodd" d="M11.2797 451.457V402.547H9.46484V452.676L193.804 528.087V474.364H191.989V525.384L11.2797 451.457Z" fill="white"/>
<path fill-rule="evenodd" clip-rule="evenodd" d="M560.146 379.118V349.916H561.961V380.345L193.621 528.096L192.945 526.412L560.146 379.118Z" fill="white"/>
<path fill-rule="evenodd" clip-rule="evenodd" d="M288.954 449.76V490.179H287.139V452.299L240.471 468.271V509.106H238.656V466.974L288.954 449.76Z" fill="white"/>
<path fill-rule="evenodd" clip-rule="evenodd" d="M554.962 354.609V382.324H553.147V357.148L506.479 373.12V402.028H504.664V371.823L554.962 354.609Z" fill="white"/>
<path fill-rule="evenodd" clip-rule="evenodd" d="M522.551 384.978V367.027H524.366V386.929L505.504 385.562L505.635 383.752L522.551 384.978Z" fill="white"/>
<path fill-rule="evenodd" clip-rule="evenodd" d="M278.582 465.032V492.512H276.767V467.621L240.131 480.921L239.512 479.215L278.582 465.032Z" fill="white"/>
<path fill-rule="evenodd" clip-rule="evenodd" d="M162.819 132.39V184.244H169.56V132.39H162.819ZM162.3 130.576C161.584 130.576 161.004 131.156 161.004 131.872V184.762C161.004 185.478 161.584 186.059 162.3 186.059H170.078C170.794 186.059 171.375 185.478 171.375 184.762V131.872C171.375 131.156 170.794 130.576 170.078 130.576H162.3Z" fill="white"/>
<path fill-rule="evenodd" clip-rule="evenodd" d="M152.448 85.7223V119.108L161.286 117.669C161.61 117.616 161.94 117.615 162.264 117.665L171.633 119.123V85.7223H152.448ZM151.929 83.9075C151.213 83.9075 150.633 84.4879 150.633 85.2038V119.717C150.633 120.517 151.349 121.125 152.137 120.997L161.578 119.46C161.713 119.438 161.85 119.438 161.985 119.459L171.953 121.009C172.739 121.132 173.448 120.524 173.448 119.728V85.2038C173.448 84.4879 172.868 83.9075 172.152 83.9075H151.929Z" fill="white"/>
<path fill-rule="evenodd" clip-rule="evenodd" d="M156.858 395.615V428.036L160.518 432.103H171.895V398.121L156.858 395.615ZM156.552 393.724C155.762 393.592 155.043 394.202 155.043 395.003V428.235C155.043 428.556 155.162 428.864 155.376 429.103L159.324 433.489C159.569 433.762 159.92 433.918 160.287 433.918H172.414C173.13 433.918 173.71 433.338 173.71 432.622V397.682C173.71 397.048 173.252 396.507 172.627 396.403L156.552 393.724Z" fill="white"/>
<path fill-rule="evenodd" clip-rule="evenodd" d="M47.7055 217.171H23.3344V259.172H47.7055V217.171ZM21.5195 215.356V260.987H49.5204V215.356H21.5195Z" fill="white"/>
<path fill-rule="evenodd" clip-rule="evenodd" d="M41.223 223.912H26.9633V252.172H41.223V223.912ZM25.1484 222.097V253.987H43.0379V222.097H25.1484Z" fill="white"/>
<path fill-rule="evenodd" clip-rule="evenodd" d="M33.3164 225.078H41.4833V226.893H35.1313V249.449H41.4833V251.264H33.3164V225.078Z" fill="white"/>
<path fill-rule="evenodd" clip-rule="evenodd" d="M369.197 121.242H357.53V150.539H369.197V121.242ZM355.715 119.427V152.354H371.012V119.427H355.715Z" fill="white"/>
<path fill-rule="evenodd" clip-rule="evenodd" d="M369.197 341.36H357.53V370.657H369.197V341.36ZM355.715 339.545V372.472H371.012V339.545H355.715Z" fill="white"/>
<path fill-rule="evenodd" clip-rule="evenodd" d="M560.83 131.974L208.227 42.7859L208.672 41.0265L561.275 130.214L560.83 131.974Z" fill="white"/>
<g filter="url(#filter0_i_343_998)">
<path fill-rule="evenodd" clip-rule="evenodd" d="M470.469 274.85L468.874 275.012L468.559 271.917L470.154 271.755L470.469 274.85ZM465.684 275.336L462.494 275.66L462.179 272.565L465.369 272.241L465.684 275.336ZM459.304 275.984L456.114 276.308L455.8 273.213L458.99 272.889L459.304 275.984ZM452.924 276.632L449.734 276.956L449.42 273.861L452.61 273.537L452.924 276.632ZM446.544 277.28L443.354 277.604L443.04 274.509L446.23 274.185L446.544 277.28ZM440.165 277.929L436.975 278.253L436.66 275.157L439.85 274.833L440.165 277.929ZM433.785 278.577L430.595 278.901L430.28 275.806L433.47 275.481L433.785 278.577ZM427.405 279.225L424.215 279.549L423.901 276.454L427.09 276.13L427.405 279.225ZM421.025 279.873L417.835 280.197L417.521 277.102L420.711 276.778L421.025 279.873ZM414.645 280.521L411.455 280.845L411.141 277.75L414.331 277.426L414.645 280.521ZM408.265 281.169L405.076 281.494L404.761 278.398L407.951 278.074L408.265 281.169ZM401.886 281.818L398.696 282.142L398.381 279.046L401.571 278.722L401.886 281.818ZM395.506 282.466L392.316 282.79L392.001 279.695L395.191 279.37L395.506 282.466ZM389.126 283.114L385.936 283.438L385.622 280.343L388.812 280.019L389.126 283.114ZM382.746 283.762L381.151 283.924L380.837 280.829L382.432 280.667L382.746 283.762ZM470.469 283.924L468.874 284.086L468.559 280.991L470.154 280.829L470.469 283.924ZM465.684 284.41L462.494 284.734L462.179 281.639L465.369 281.315L465.684 284.41ZM459.304 285.058L456.114 285.383L455.8 282.287L458.99 281.963L459.304 285.058ZM452.924 285.707L449.734 286.031L449.42 282.935L452.61 282.611L452.924 285.707ZM446.544 286.355L443.354 286.679L443.04 283.584L446.23 283.259L446.544 286.355ZM440.165 287.003L436.975 287.327L436.66 284.232L439.85 283.908L440.165 287.003ZM433.785 287.651L430.595 287.975L430.28 284.88L433.47 284.556L433.785 287.651ZM427.405 288.299L424.215 288.623L423.901 285.528L427.09 285.204L427.405 288.299ZM421.025 288.947L417.835 289.272L417.521 286.176L420.711 285.852L421.025 288.947ZM414.645 289.596L411.455 289.92L411.141 286.824L414.331 286.5L414.645 289.596ZM408.265 290.244L405.076 290.568L404.761 287.473L407.951 287.149L408.265 290.244ZM401.886 290.892L398.696 291.216L398.381 288.121L401.571 287.797L401.886 290.892ZM395.506 291.54L392.316 291.864L392.001 288.769L395.191 288.445L395.506 291.54ZM389.126 292.188L385.936 292.512L385.622 289.417L388.812 289.093L389.126 292.188ZM382.746 292.836L381.151 292.998L380.837 289.903L382.432 289.741L382.746 292.836ZM470.522 292.992L468.927 293.21L468.506 290.127L470.101 289.91L470.522 292.992ZM465.737 293.645L462.547 294.08L462.126 290.998L465.316 290.562L465.737 293.645ZM459.357 294.515L456.167 294.951L455.747 291.868L458.936 291.433L459.357 294.515ZM452.977 295.386L449.787 295.821L449.367 292.738L452.557 292.303L452.977 295.386ZM446.597 296.256L443.407 296.691L442.987 293.609L446.177 293.174L446.597 296.256ZM440.218 297.127L437.028 297.562L436.607 294.479L439.797 294.044L440.218 297.127ZM433.838 297.997L430.648 298.432L430.227 295.35L433.417 294.914L433.838 297.997ZM427.458 298.867L424.268 299.303L423.847 296.22L427.037 295.785L427.458 298.867ZM421.078 299.738L417.888 300.173L417.468 297.09L420.658 296.655L421.078 299.738ZM414.698 300.608L411.508 301.043L411.088 297.961L414.278 297.525L414.698 300.608ZM408.318 301.479L405.129 301.914L404.708 298.831L407.898 298.396L408.318 301.479ZM469.65 301.932L468.071 302.184L467.58 299.112L469.159 298.859L469.65 301.932ZM401.939 302.349L398.749 302.784L398.328 299.701L401.518 299.266L401.939 302.349ZM464.913 302.689L461.756 303.193L461.265 300.121L464.422 299.616L464.913 302.689ZM395.559 303.219L392.369 303.655L391.948 300.572L395.138 300.137L395.559 303.219ZM458.598 303.698L455.441 304.203L454.95 301.13L458.107 300.626L458.598 303.698ZM389.179 304.09L385.989 304.525L385.569 301.442L388.758 301.007L389.179 304.09ZM452.283 304.707L449.126 305.212L448.635 302.14L451.792 301.635L452.283 304.707ZM382.799 304.96L381.204 305.178L380.784 302.095L382.379 301.877L382.799 304.96ZM445.968 305.717L442.811 306.221L442.32 303.149L445.477 302.644L445.968 305.717ZM439.653 306.726L436.496 307.23L436.005 304.158L439.162 303.654L439.653 306.726ZM433.338 307.735L430.181 308.24L429.69 305.168L432.847 304.663L433.338 307.735ZM427.023 308.744L423.866 309.249L423.375 306.177L426.532 305.672L427.023 308.744ZM420.708 309.754L417.551 310.258L417.06 307.186L420.217 306.681L420.708 309.754ZM469.65 310.617L468.071 310.869L467.58 307.797L469.159 307.545L469.65 310.617ZM414.393 310.763L411.236 311.268L410.745 308.195L413.902 307.691L414.393 310.763ZM464.913 311.374L461.756 311.879L461.265 308.807L464.422 308.302L464.913 311.374ZM408.078 311.772L404.921 312.277L404.43 309.205L407.587 308.7L408.078 311.772ZM458.598 312.383L455.441 312.888L454.95 309.816L458.107 309.311L458.598 312.383ZM401.763 312.782L398.606 313.286L398.115 310.214L401.272 309.709L401.763 312.782ZM452.283 313.393L449.126 313.897L448.635 310.825L451.792 310.32L452.283 313.393ZM395.448 313.791L392.291 314.295L391.8 311.223L394.957 310.719L395.448 313.791ZM445.968 314.402L442.811 314.907L442.32 311.834L445.477 311.33L445.968 314.402ZM389.133 314.8L385.976 315.305L385.485 312.233L388.642 311.728L389.133 314.8ZM439.653 315.411L436.496 315.916L436.005 312.844L439.162 312.339L439.653 315.411ZM382.818 315.809L381.239 316.062L380.748 312.99L382.327 312.737L382.818 315.809ZM433.338 316.421L430.181 316.925L429.69 313.853L432.847 313.348L433.338 316.421ZM427.023 317.43L423.866 317.934L423.375 314.862L426.532 314.358L427.023 317.43ZM420.708 318.439L417.551 318.944L417.06 315.872L420.217 315.367L420.708 318.439ZM414.393 319.448L411.236 319.953L410.745 316.881L413.902 316.376L414.393 319.448ZM408.078 320.458L404.921 320.962L404.43 317.89L407.587 317.385L408.078 320.458ZM469.65 320.469L468.071 320.722L467.58 317.649L469.159 317.397L469.65 320.469ZM464.913 321.226L461.756 321.731L461.265 318.659L464.422 318.154L464.913 321.226ZM401.763 321.467L398.606 321.972L398.115 318.899L401.272 318.395L401.763 321.467ZM458.598 322.236L455.441 322.74L454.95 319.668L458.107 319.163L458.598 322.236ZM395.448 322.476L392.291 322.981L391.8 319.909L394.957 319.404L395.448 322.476ZM452.283 323.245L449.126 323.749L448.635 320.677L451.792 320.173L452.283 323.245ZM389.133 323.486L385.976 323.99L385.485 320.918L388.642 320.413L389.133 323.486ZM445.968 324.254L442.811 324.759L442.32 321.687L445.477 321.182L445.968 324.254ZM382.818 324.495L381.239 324.747L380.748 321.675L382.327 321.423L382.818 324.495ZM439.653 325.263L436.496 325.768L436.005 322.696L439.162 322.191L439.653 325.263ZM433.338 326.273L430.181 326.777L429.69 323.705L432.847 323.2L433.338 326.273ZM427.023 327.282L423.866 327.787L423.375 324.714L426.532 324.21L427.023 327.282ZM420.708 328.291L417.551 328.796L417.06 325.724L420.217 325.219L420.708 328.291ZM469.678 328.761L468.099 329.043L467.551 325.981L469.13 325.698L469.678 328.761ZM414.393 329.301L411.236 329.805L410.745 326.733L413.902 326.228L414.393 329.301ZM464.942 329.608L461.784 330.173L461.236 327.11L464.394 326.546L464.942 329.608ZM408.078 330.31L404.921 330.814L404.43 327.742L407.587 327.238L408.078 330.31ZM458.627 330.738L455.469 331.303L454.921 328.24L458.079 327.675L458.627 330.738ZM401.763 331.319L398.606 331.824L398.115 328.752L401.272 328.247L401.763 331.319ZM452.312 331.868L449.154 332.432L448.606 329.37L451.764 328.805L452.312 331.868ZM395.448 332.328L392.291 332.833L391.8 329.761L394.957 329.256L395.448 332.328ZM445.997 332.997L442.839 333.562L442.291 330.499L445.449 329.935L445.997 332.997ZM389.133 333.338L385.976 333.842L385.485 330.77L388.642 330.265L389.133 333.338ZM439.682 334.127L436.524 334.692L435.976 331.629L439.134 331.064L439.682 334.127ZM382.818 334.347L381.239 334.599L380.748 331.527L382.327 331.275L382.818 334.347ZM433.367 335.257L430.209 335.821L429.661 332.759L432.819 332.194L433.367 335.257ZM427.052 336.386L423.894 336.951L423.346 333.888L426.504 333.324L427.052 336.386ZM469.734 337.306L468.26 337.626L467.601 334.585L469.074 334.265L469.734 337.306ZM420.737 337.516L417.579 338.081L417.031 335.018L420.189 334.453L420.737 337.516ZM465.313 338.265L462.366 338.905L461.707 335.864L464.654 335.225L465.313 338.265ZM414.422 338.646L411.264 339.21L410.716 336.148L413.874 335.583L414.422 338.646ZM459.419 339.544L456.472 340.184L455.813 337.143L458.76 336.504L459.419 339.544ZM408.107 339.775L404.949 340.34L404.401 337.277L407.559 336.713L408.107 339.775ZM453.525 340.823L450.578 341.463L449.919 338.422L452.866 337.783L453.525 340.823ZM401.792 340.905L398.634 341.47L398.086 338.407L401.244 337.842L401.792 340.905ZM395.477 342.035L392.319 342.599L391.771 339.537L394.929 338.972L395.477 342.035ZM447.631 342.102L444.684 342.742L444.025 339.701L446.972 339.062L447.631 342.102ZM389.162 343.164L386.004 343.729L385.456 340.666L388.614 340.102L389.162 343.164ZM441.737 343.381L438.79 344.021L438.131 340.98L441.078 340.341L441.737 343.381ZM382.847 344.294L381.268 344.576L380.72 341.514L382.299 341.231L382.847 344.294ZM435.843 344.66L432.896 345.3L432.237 342.259L435.184 341.62L435.843 344.66ZM429.949 345.939L427.002 346.579L426.343 343.538L429.29 342.899L429.949 345.939ZM424.055 347.218L421.108 347.858L420.449 344.817L423.396 344.178L424.055 347.218ZM418.161 348.497L415.214 349.137L414.555 346.097L417.502 345.457L418.161 348.497ZM412.267 349.776L409.32 350.416L408.661 347.376L411.608 346.736L412.267 349.776ZM406.373 351.056L403.426 351.695L402.767 348.655L405.714 348.015L406.373 351.056ZM400.479 352.335L397.532 352.974L396.873 349.934L399.82 349.294L400.479 352.335ZM394.585 353.614L391.638 354.253L390.979 351.213L393.926 350.573L394.585 353.614ZM388.691 354.893L385.744 355.532L385.085 352.492L388.032 351.852L388.691 354.893ZM382.797 356.172L381.324 356.492L380.664 353.451L382.138 353.131L382.797 356.172Z" fill="white"/>
</g>
<g filter="url(#filter1_i_343_998)">
<path fill-rule="evenodd" clip-rule="evenodd" d="M36.1012 290.966L34.5672 290.793L34.9155 287.701L36.4495 287.874L36.1012 290.966ZM42.2372 291.657L39.1692 291.311L39.5175 288.22L42.5855 288.566L42.2372 291.657ZM48.3732 292.349L45.3052 292.003L45.6535 288.911L48.7215 289.257L48.3732 292.349ZM54.5091 293.04L51.4412 292.694L51.7895 289.603L54.8575 289.948L54.5091 293.04ZM60.6451 293.731L57.5771 293.386L57.9255 290.294L60.9935 290.64L60.6451 293.731ZM66.7811 294.423L63.7131 294.077L64.0615 290.985L67.1295 291.331L66.7811 294.423ZM72.9171 295.114L69.8491 294.768L70.1975 291.677L73.2655 292.022L72.9171 295.114ZM79.0531 295.805L75.9851 295.46L76.3335 292.368L79.4015 292.714L79.0531 295.805ZM85.1891 296.497L82.1211 296.151L82.4695 293.059L85.5374 293.405L85.1891 296.497ZM91.3251 297.188L88.2571 296.843L88.6054 293.751L91.6734 294.097L91.3251 297.188ZM97.4611 297.88L94.3931 297.534L94.7414 294.442L97.8094 294.788L97.4611 297.88ZM103.597 298.571L100.529 298.225L100.877 295.134L103.945 295.479L103.597 298.571ZM109.733 299.262L106.665 298.917L107.013 295.825L110.081 296.171L109.733 299.262ZM115.869 299.954L112.801 299.608L113.149 296.516L116.217 296.862L115.869 299.954ZM122.005 300.645L118.937 300.299L119.285 297.208L122.353 297.553L122.005 300.645ZM37.3717 300.859L35.8197 300.64L36.2557 297.559L37.8077 297.779L37.3717 300.859ZM128.141 301.336L125.073 300.991L125.421 297.899L128.489 298.245L128.141 301.336ZM43.5797 301.738L40.4757 301.298L40.9117 298.218L44.0157 298.657L43.5797 301.738ZM134.277 302.028L131.209 301.682L131.557 298.591L134.625 298.936L134.277 302.028ZM49.7877 302.616L46.6837 302.177L47.1197 299.097L50.2237 299.536L49.7877 302.616ZM140.413 302.719L137.345 302.374L137.693 299.282L140.761 299.628L140.413 302.719ZM145.015 303.238L143.481 303.065L143.829 299.973L145.363 300.146L145.015 303.238ZM55.9957 303.495L52.8917 303.056L53.3277 299.975L56.4317 300.415L55.9957 303.495ZM62.2037 304.374L59.0997 303.934L59.5357 300.854L62.6397 301.293L62.2037 304.374ZM68.4117 305.252L65.3077 304.813L65.7437 301.732L68.8477 302.172L68.4117 305.252ZM74.6197 306.131L71.5157 305.692L71.9517 302.611L75.0557 303.05L74.6197 306.131ZM80.8278 307.01L77.7238 306.57L78.1597 303.49L81.2637 303.929L80.8278 307.01ZM87.0358 307.888L83.9318 307.449L84.3677 304.368L87.4717 304.808L87.0358 307.888ZM93.2438 308.767L90.1398 308.328L90.5758 305.247L93.6798 305.686L93.2438 308.767ZM99.4518 309.645L96.3478 309.206L96.7838 306.126L99.8878 306.565L99.4518 309.645ZM105.66 310.524L102.556 310.085L102.992 307.004L106.096 307.444L105.66 310.524ZM111.868 311.403L108.764 310.963L109.2 307.883L112.304 308.322L111.868 311.403ZM37.3473 312.029L35.7953 311.784L36.2801 308.711L37.8321 308.956L37.3473 312.029ZM118.076 312.281L114.972 311.842L115.408 308.762L118.512 309.201L118.076 312.281ZM43.5553 313.009L40.4513 312.519L40.9361 309.446L44.0401 309.935L43.5553 313.009ZM124.284 313.16L121.18 312.721L121.616 309.64L124.72 310.079L124.284 313.16ZM49.7633 313.988L46.6593 313.498L47.1441 310.425L50.2481 310.915L49.7633 313.988ZM130.492 314.039L127.388 313.599L127.824 310.519L130.928 310.958L130.492 314.039ZM136.7 314.917L133.596 314.478L134.032 311.397L137.136 311.837L136.7 314.917ZM55.9713 314.968L52.8673 314.478L53.3521 311.405L56.4562 311.894L55.9713 314.968ZM142.908 315.796L139.804 315.357L140.24 312.276L143.344 312.715L142.908 315.796ZM62.1793 315.947L59.0753 315.457L59.5602 312.384L62.6642 312.874L62.1793 315.947ZM147.564 316.455L146.012 316.235L146.448 313.155L148 313.374L147.564 316.455ZM68.3873 316.926L65.2833 316.437L65.7682 313.364L68.8722 313.853L68.3873 316.926ZM74.5953 317.906L71.4913 317.416L71.9762 314.343L75.0802 314.833L74.5953 317.906ZM80.8033 318.885L77.6993 318.396L78.1842 315.322L81.2882 315.812L80.8033 318.885ZM87.0113 319.865L83.9073 319.375L84.3922 316.302L87.4962 316.792L87.0113 319.865ZM93.2193 320.844L90.1153 320.355L90.6002 317.281L93.7042 317.771L93.2193 320.844ZM99.4273 321.824L96.3233 321.334L96.8082 318.261L99.9122 318.751L99.4273 321.824ZM105.635 322.803L102.531 322.313L103.016 319.24L106.12 319.73L105.635 322.803ZM37.3265 323.196L35.7745 322.929L36.3009 319.863L37.8529 320.13L37.3265 323.196ZM111.843 323.783L108.739 323.293L109.224 320.22L112.328 320.709L111.843 323.783ZM43.5345 324.262L40.4305 323.729L40.9569 320.662L44.0609 321.195L43.5345 324.262ZM118.051 324.762L114.947 324.272L115.432 321.199L118.536 321.689L118.051 324.762ZM49.7425 325.328L46.6385 324.795L47.1649 321.728L50.269 322.261L49.7425 325.328ZM124.259 325.742L121.155 325.252L121.64 322.179L124.744 322.668L124.259 325.742ZM55.9505 326.393L52.8465 325.861L53.373 322.794L56.477 323.327L55.9505 326.393ZM130.467 326.721L127.363 326.231L127.848 323.158L130.952 323.648L130.467 326.721ZM62.1585 327.459L59.0545 326.926L59.581 323.86L62.685 324.393L62.1585 327.459ZM136.675 327.7L133.571 327.211L134.056 324.138L137.16 324.627L136.675 327.7ZM68.3665 328.525L65.2625 327.992L65.789 324.926L68.893 325.459L68.3665 328.525ZM142.883 328.68L139.779 328.19L140.264 325.117L143.368 325.607L142.883 328.68ZM74.5745 329.591L71.4705 329.058L71.997 325.992L75.101 326.525L74.5745 329.591ZM147.539 329.415L145.987 329.17L146.472 326.096L148.024 326.341L147.539 329.415ZM80.7825 330.657L77.6785 330.124L78.205 327.058L81.309 327.591L80.7825 330.657ZM86.9905 331.723L83.8865 331.19L84.413 328.124L87.517 328.657L86.9905 331.723ZM93.1985 332.789L90.0945 332.256L90.621 329.189L93.725 329.722L93.1985 332.789ZM99.4065 333.855L96.3025 333.322L96.829 330.255L99.933 330.788L99.4065 333.855ZM37.299 334.627L35.747 334.332L36.3284 331.276L37.8804 331.571L37.299 334.627ZM105.615 334.921L102.511 334.388L103.037 331.321L106.141 331.854L105.615 334.921ZM43.507 335.809L40.403 335.218L40.9845 332.162L44.0885 332.752L43.507 335.809ZM111.823 335.986L108.719 335.453L109.245 332.387L112.349 332.92L111.823 335.986ZM49.715 336.99L46.611 336.399L47.1925 333.343L50.2965 333.933L49.715 336.99ZM118.031 337.052L114.927 336.519L115.453 333.453L118.557 333.986L118.031 337.052ZM124.239 338.118L121.135 337.585L121.661 334.519L124.765 335.052L124.239 338.118ZM55.923 338.171L52.819 337.58L53.4005 334.524L56.5045 335.114L55.923 338.171ZM130.447 339.184L127.343 338.651L127.869 335.585L130.973 336.118L130.447 339.184ZM62.131 339.352L59.027 338.761L59.6085 335.705L62.7125 336.295L62.131 339.352ZM136.655 340.25L133.551 339.717L134.077 336.651L137.181 337.184L136.655 340.25ZM68.339 340.533L65.235 339.942L65.8165 336.886L68.9205 337.477L68.339 340.533ZM142.863 341.316L139.759 340.783L140.285 337.716L143.389 338.249L142.863 341.316ZM74.547 341.714L71.443 341.124L72.0245 338.067L75.1285 338.658L74.547 341.714ZM147.519 342.115L145.967 341.849L146.493 338.782L148.045 339.049L147.519 342.115ZM80.755 342.895L77.651 342.305L78.2325 339.248L81.3365 339.839L80.755 342.895ZM86.963 344.076L83.859 343.486L84.4405 340.429L87.5445 341.02L86.963 344.076ZM37.2515 344.52L35.6995 344.175L36.3759 341.138L37.9279 341.483L37.2515 344.52ZM93.171 345.257L90.067 344.667L90.6485 341.61L93.7525 342.201L93.171 345.257ZM43.4595 345.903L40.3555 345.212L41.0319 342.175L44.1359 342.866L43.4595 345.903ZM99.379 346.439L96.275 345.848L96.8565 342.792L99.9605 343.382L99.379 346.439ZM49.6675 347.286L46.5635 346.594L47.2399 343.558L50.3439 344.249L49.6675 347.286ZM105.587 347.62L102.483 347.029L103.065 343.973L106.169 344.563L105.587 347.62ZM55.8755 348.668L52.7715 347.977L53.4479 344.94L56.5519 345.632L55.8755 348.668ZM111.795 348.801L108.691 348.21L109.273 345.154L112.377 345.744L111.795 348.801ZM62.0835 350.051L58.9795 349.36L59.6559 346.323L62.7599 347.014L62.0835 350.051ZM118.003 349.982L114.899 349.391L115.481 346.335L118.585 346.925L118.003 349.982ZM124.211 351.163L121.107 350.572L121.689 347.516L124.793 348.107L124.211 351.163ZM68.2915 351.434L65.1875 350.743L65.8639 347.706L68.9679 348.397L68.2915 351.434ZM130.419 352.344L127.315 351.753L127.897 348.697L131.001 349.288L130.419 352.344ZM74.4995 352.817L71.3955 352.125L72.0719 349.089L75.1759 349.78L74.4995 352.817ZM136.627 353.525L133.523 352.935L134.105 349.878L137.209 350.469L136.627 353.525ZM80.7075 354.2L77.6035 353.508L78.2799 350.471L81.3839 351.163L80.7075 354.2ZM35.858 354.384L34.3706 354.019L35.1121 350.998L36.5995 351.363L35.858 354.384ZM142.835 354.706L139.731 354.116L140.313 351.059L143.417 351.65L142.835 354.706ZM86.9155 355.582L83.8115 354.891L84.4879 351.854L87.5919 352.545L86.9155 355.582ZM41.8075 355.844L38.8327 355.114L39.5742 352.093L42.549 352.823L41.8075 355.844ZM147.491 355.592L145.939 355.297L146.521 352.24L148.073 352.536L147.491 355.592ZM93.1235 356.965L90.0195 356.274L90.696 353.237L93.8 353.928L93.1235 356.965ZM47.757 357.304L44.7822 356.574L45.5237 353.553L48.4985 354.283L47.757 357.304ZM99.3316 358.348L96.2276 357.656L96.904 354.62L100.008 355.311L99.3316 358.348ZM53.7065 358.764L50.7317 358.034L51.4732 355.013L54.448 355.743L53.7065 358.764ZM105.54 359.731L102.436 359.039L103.112 356.002L106.216 356.694L105.54 359.731ZM59.656 360.224L56.6812 359.494L57.4227 356.473L60.3975 357.203L59.656 360.224ZM111.748 361.113L108.644 360.422L109.32 357.385L112.424 358.077L111.748 361.113ZM65.6055 361.684L62.6307 360.954L63.3722 357.933L66.347 358.663L65.6055 361.684ZM117.956 362.496L114.852 361.805L115.528 358.768L118.632 359.459L117.956 362.496ZM71.555 363.145L68.5802 362.415L69.3217 359.393L72.2965 360.123L71.555 363.145ZM124.164 363.879L121.06 363.187L121.736 360.151L124.84 360.842L124.164 363.879ZM77.5045 364.605L74.5297 363.875L75.2712 360.853L78.246 361.583L77.5045 364.605ZM130.372 365.262L127.268 364.57L127.944 361.533L131.048 362.225L130.372 365.262ZM83.454 366.065L80.4792 365.335L81.2207 362.313L84.1955 363.043L83.454 366.065ZM136.58 366.644L133.476 365.953L134.152 362.916L137.256 363.608L136.58 366.644ZM35.8223 366.339L34.335 365.936L35.1478 362.933L36.6351 363.336L35.8223 366.339ZM89.4035 367.525L86.4287 366.795L87.1702 363.773L90.145 364.503L89.4035 367.525ZM41.7718 367.949L38.7971 367.144L39.6099 364.141L42.5846 364.946L41.7718 367.949ZM142.788 368.027L139.684 367.336L140.36 364.299L143.464 364.99L142.788 368.027ZM95.353 368.985L92.3782 368.255L93.1197 365.233L96.0945 365.963L95.353 368.985ZM147.444 369.064L145.892 368.718L146.568 365.682L148.12 366.027L147.444 369.064ZM47.7213 369.559L44.7466 368.754L45.5594 365.751L48.5341 366.556L47.7213 369.559ZM101.302 370.445L98.3277 369.715L99.0692 366.693L102.044 367.423L101.302 370.445ZM53.6708 371.169L50.6961 370.364L51.5089 367.361L54.4836 368.166L53.6708 371.169ZM107.252 371.905L104.277 371.175L105.019 368.153L107.993 368.884L107.252 371.905ZM59.6203 372.779L56.6456 371.974L57.4584 368.971L60.4331 369.776L59.6203 372.779ZM113.201 373.365L110.227 372.635L110.968 369.614L113.943 370.344L113.201 373.365ZM65.5698 374.39L62.5951 373.585L63.4079 370.581L66.3826 371.386L65.5698 374.39ZM119.151 374.825L116.176 374.095L116.918 371.074L119.892 371.804L119.151 374.825ZM71.5193 376L68.5446 375.195L69.3574 372.192L72.3321 372.997L71.5193 376ZM125.1 376.285L122.126 375.555L122.867 372.534L125.842 373.264L125.1 376.285ZM77.4688 377.61L74.4941 376.805L75.3069 373.802L78.2816 374.607L77.4688 377.61ZM131.05 377.745L128.075 377.015L128.817 373.994L131.791 374.724L131.05 377.745ZM35.8143 378.66L34.327 378.249L35.1558 375.25L36.6431 375.661L35.8143 378.66ZM83.4183 379.22L80.4436 378.415L81.2564 375.412L84.2311 376.217L83.4183 379.22ZM136.999 379.205L134.025 378.475L134.766 375.454L137.741 376.184L136.999 379.205ZM41.7638 380.305L38.7891 379.482L39.6179 376.484L42.5926 377.306L41.7638 380.305ZM142.949 380.666L139.974 379.936L140.716 376.914L143.69 377.644L142.949 380.666ZM89.3678 380.83L86.3931 380.025L87.2059 377.022L90.1806 377.827L89.3678 380.83ZM47.7133 381.949L44.7386 381.127L45.5674 378.128L48.5421 378.95L47.7133 381.949ZM147.411 381.761L145.924 381.396L146.665 378.374L148.153 378.739L147.411 381.761ZM95.3173 382.441L92.3426 381.635L93.1554 378.632L96.1301 379.437L95.3173 382.441ZM53.6628 383.593L50.6881 382.771L51.5169 379.772L54.4916 380.594L53.6628 383.593ZM101.267 384.051L98.2921 383.246L99.1049 380.242L102.08 381.048L101.267 384.051ZM59.6123 385.237L56.6376 384.415L57.4664 381.416L60.4411 382.239L59.6123 385.237ZM107.216 385.661L104.242 384.856L105.054 381.853L108.029 382.658L107.216 385.661ZM65.5618 386.882L62.5871 386.06L63.4159 383.061L66.3906 383.883L65.5618 386.882ZM113.166 387.271L110.191 386.466L111.004 383.463L113.979 384.268L113.166 387.271ZM35.7842 387.629L34.2969 387.185L35.1859 384.204L36.6732 384.647L35.7842 387.629ZM71.5113 388.526L68.5366 387.704L69.3654 384.705L72.3401 385.527L71.5113 388.526ZM119.115 388.881L116.141 388.076L116.953 385.073L119.928 385.878L119.115 388.881ZM41.7337 389.403L38.759 388.516L39.648 385.534L42.6227 386.421L41.7337 389.403ZM77.4608 390.17L74.4861 389.348L75.3149 386.349L78.2896 387.172L77.4608 390.17ZM125.065 390.491L122.09 389.686L122.903 386.683L125.878 387.488L125.065 390.491ZM47.6832 391.177L44.7085 390.29L45.5975 387.308L48.5722 388.195L47.6832 391.177ZM83.4103 391.815L80.4356 390.992L81.2644 387.994L84.2391 388.816L83.4103 391.815ZM131.014 392.102L128.04 391.297L128.852 388.293L131.827 389.099L131.014 392.102ZM53.6327 392.951L50.658 392.064L51.547 389.082L54.5217 389.969L53.6327 392.951ZM89.3598 393.459L86.3851 392.637L87.2139 389.638L90.1886 390.46L89.3598 393.459ZM136.964 393.712L133.989 392.907L134.802 389.904L137.777 390.709L136.964 393.712ZM59.5822 394.724L56.6075 393.837L57.4965 390.856L60.4712 391.743L59.5822 394.724ZM95.3093 395.103L92.3346 394.281L93.1634 391.282L96.1381 392.104L95.3093 395.103ZM142.913 395.322L139.939 394.517L140.751 391.514L143.726 392.319L142.913 395.322ZM65.5317 396.498L62.557 395.611L63.446 392.63L66.4207 393.517L65.5317 396.498ZM101.259 396.748L98.2841 395.925L99.1129 392.927L102.088 393.749L101.259 396.748ZM147.375 396.53L145.888 396.127L146.701 393.124L148.188 393.527L147.375 396.53ZM71.4812 398.272L68.5065 397.385L69.3955 394.404L72.3702 395.291L71.4812 398.272ZM107.208 398.392L104.234 397.57L105.062 394.571L108.037 395.393L107.208 398.392ZM77.4307 400.046L74.456 399.159L75.345 396.178L78.3197 397.065L77.4307 400.046ZM113.158 400.036L110.183 399.214L111.012 396.215L113.987 397.037L113.158 400.036ZM119.107 401.68L116.133 400.858L116.961 397.859L119.936 398.682L119.107 401.68ZM83.3802 401.82L80.4055 400.933L81.2945 397.952L84.2692 398.839L83.3802 401.82ZM125.057 403.325L122.082 402.503L122.911 399.504L125.886 400.326L125.057 403.325ZM89.3297 403.594L86.355 402.707L87.2439 399.726L90.2187 400.613L89.3297 403.594ZM131.006 404.969L128.032 404.147L128.86 401.148L131.835 401.97L131.006 404.969ZM95.2792 405.368L92.3045 404.481L93.1934 401.5L96.1682 402.387L95.2792 405.368ZM136.956 406.613L133.981 405.791L134.81 402.792L137.785 403.615L136.956 406.613ZM101.229 407.142L98.254 406.255L99.1429 403.273L102.118 404.16L101.229 407.142ZM142.905 408.258L139.931 407.435L140.759 404.437L143.734 405.259L142.905 408.258ZM107.178 408.916L104.203 408.029L105.092 405.047L108.067 405.934L107.178 408.916ZM147.367 409.491L145.88 409.08L146.709 406.081L148.196 406.492L147.367 409.491ZM113.128 410.69L110.153 409.803L111.042 406.821L114.017 407.708L113.128 410.69ZM119.077 412.464L116.102 411.577L116.991 408.595L119.966 409.482L119.077 412.464ZM125.027 414.238L122.052 413.351L122.941 410.369L125.916 411.256L125.027 414.238ZM130.976 416.012L128.001 415.125L128.89 412.143L131.865 413.03L130.976 416.012ZM136.926 417.786L133.951 416.899L134.84 413.917L137.815 414.804L136.926 417.786ZM142.875 419.559L139.9 418.673L140.789 415.691L143.764 416.578L142.875 419.559ZM147.337 420.89L145.85 420.446L146.739 417.465L148.226 417.908L147.337 420.89Z" fill="white"/>
</g>
<path fill-rule="evenodd" clip-rule="evenodd" d="M291.699 148.963L260.094 150.242L260.021 148.429L291.625 147.149C297.849 146.897 303.098 151.738 303.35 157.962L304.581 188.362C304.84 194.764 299.72 200.096 293.312 200.096L262.002 200.096L262.002 198.281L293.312 198.281C298.689 198.281 302.985 193.807 302.768 188.435L301.537 158.036C301.326 152.813 296.921 148.751 291.699 148.963Z" fill="white"/>
<path fill-rule="evenodd" clip-rule="evenodd" d="M290.629 159.826L273.788 160.447C273.216 160.468 272.769 160.949 272.79 161.522L273.239 173.699C273.26 174.271 273.741 174.718 274.313 174.697L291.154 174.076C291.727 174.055 292.174 173.574 292.152 173.002L291.703 160.824C291.682 160.252 291.201 159.805 290.629 159.826ZM273.721 158.634C272.147 158.692 270.918 160.015 270.976 161.589L271.425 173.766C271.483 175.34 272.806 176.569 274.38 176.511L291.221 175.89C292.795 175.832 294.024 174.509 293.966 172.935L293.517 160.758C293.459 159.184 292.136 157.955 290.562 158.013L273.721 158.634Z" fill="white"/>
<path fill-rule="evenodd" clip-rule="evenodd" d="M292.631 184.177L290.982 184.225C290.409 184.241 289.958 184.719 289.975 185.291L290.047 187.761C290.063 188.333 290.541 188.784 291.113 188.767L292.762 188.719C293.335 188.703 293.786 188.225 293.769 187.653L293.697 185.183C293.681 184.611 293.203 184.16 292.631 184.177ZM290.929 182.41C289.354 182.456 288.115 183.769 288.161 185.344L288.232 187.813C288.278 189.388 289.592 190.627 291.166 190.581L292.815 190.534C294.39 190.488 295.629 189.175 295.583 187.6L295.511 185.131C295.466 183.556 294.152 182.317 292.578 182.363L290.929 182.41Z" fill="white"/>
<path fill-rule="evenodd" clip-rule="evenodd" d="M281.482 184.089L279.833 184.137C279.261 184.154 278.81 184.631 278.827 185.204L278.898 187.673C278.915 188.246 279.392 188.696 279.965 188.68L281.614 188.632C282.187 188.615 282.637 188.138 282.621 187.565L282.549 185.096C282.532 184.523 282.055 184.073 281.482 184.089ZM279.78 182.323C278.206 182.369 276.967 183.682 277.012 185.256L277.084 187.726C277.13 189.3 278.443 190.54 280.018 190.494L281.667 190.446C283.241 190.4 284.48 189.087 284.435 187.513L284.363 185.043C284.317 183.469 283.004 182.229 281.43 182.275L279.78 182.323Z" fill="white"/>
<path fill-rule="evenodd" clip-rule="evenodd" d="M271.631 184.012L269.982 184.06C269.409 184.076 268.958 184.554 268.975 185.126L269.047 187.596C269.063 188.168 269.541 188.619 270.113 188.603L271.762 188.555C272.335 188.538 272.786 188.06 272.769 187.488L272.697 185.018C272.681 184.446 272.203 183.995 271.631 184.012ZM269.929 182.246C268.354 182.291 267.115 183.605 267.161 185.179L267.232 187.649C267.278 189.223 268.592 190.462 270.166 190.417L271.815 190.369C273.39 190.323 274.629 189.01 274.583 187.435L274.511 184.966C274.466 183.391 273.152 182.152 271.578 182.198L269.929 182.246Z" fill="white"/>
<path d="M258.324 158.449C257.241 137.261 277.793 121.606 297.932 128.28C310.022 132.286 318.292 143.454 318.597 156.187L319.331 186.856C319.698 202.185 308.351 215.282 293.126 217.102C276.026 219.146 260.769 206.285 259.89 189.086L258.324 158.449Z" stroke="white" stroke-width="2"/>
<path d="M69.8846 201.715L97.3601 109.753L95.5537 175.311L121.018 176.013L93.0157 267.418L94.8072 202.401L69.8846 201.715Z" stroke="#E34004" stroke-width="3"/>
<defs>
<filter id="filter0_i_343_998" x="380.664" y="271.755" width="89.8594" height="88.7369" filterUnits="userSpaceOnUse" color-interpolation-filters="sRGB">
<feFlood flood-opacity="0" result="BackgroundImageFix"/>
<feBlend mode="normal" in="SourceGraphic" in2="BackgroundImageFix" result="shape"/>
<feColorMatrix in="SourceAlpha" type="matrix" values="0 0 0 0 0 0 0 0 0 0 0 0 0 0 0 0 0 0 127 0" result="hardAlpha"/>
<feOffset dy="4"/>
<feGaussianBlur stdDeviation="2"/>
<feComposite in2="hardAlpha" operator="arithmetic" k2="-1" k3="1"/>
<feColorMatrix type="matrix" values="0 0 0 0 0 0 0 0 0 0 0 0 0 0 0 0 0 0 0.25 0"/>
<feBlend mode="normal" in2="shape" result="effect1_innerShadow_343_998"/>
</filter>
<filter id="filter1_i_343_998" x="34.2969" y="287.701" width="113.93" height="137.189" filterUnits="userSpaceOnUse" color-interpolation-filters="sRGB">
<feFlood flood-opacity="0" result="BackgroundImageFix"/>
<feBlend mode="normal" in="SourceGraphic" in2="BackgroundImageFix" result="shape"/>
<feColorMatrix in="SourceAlpha" type="matrix" values="0 0 0 0 0 0 0 0 0 0 0 0 0 0 0 0 0 0 127 0" result="hardAlpha"/>
<feOffset dy="4"/>
<feGaussianBlur stdDeviation="2"/>
<feComposite in2="hardAlpha" operator="arithmetic" k2="-1" k3="1"/>
<feColorMatrix type="matrix" values="0 0 0 0 0 0 0 0 0 0 0 0 0 0 0 0 0 0 0.25 0"/>
<feBlend mode="normal" in2="shape" result="effect1_innerShadow_343_998"/>
</filter>
</defs>
</svg>
