<svg width="38" height="49" viewBox="0 0 38 49" fill="none" xmlns="http://www.w3.org/2000/svg">
<g id="Group 49">
<g id="Group 48">
<rect id="Rectangle 302" x="0.3" y="0.3" width="37.4" height="44.3577" rx="2.7" stroke="#FF4500" stroke-width="0.6"/>
<rect id="Rectangle 303" x="5.65156" y="6.72285" width="26.1606" height="11.1746" stroke="#FF4500" stroke-width="0.6"/>
<rect id="Rectangle 306" x="5.65156" y="40.3758" width="17.062" height="10.6394" transform="rotate(-90 5.65156 40.3758)" stroke="#FF4500" stroke-width="0.6"/>
<rect id="Rectangle 313" x="16.3566" y="40.3758" width="17.062" height="10.6394" transform="rotate(-90 16.3566 40.3758)" stroke="#FF4500" stroke-width="0.6"/>
<rect id="Rectangle 319" x="27.0617" y="40.3758" width="17.062" height="5.28732" transform="rotate(-90 27.0617 40.3758)" stroke="#FF4500" stroke-width="0.6"/>
<rect id="Rectangle 304" x="7.25703" y="8.86348" width="22.9493" height="2.61127" stroke="#FF4500" stroke-width="0.6"/>
<path id="Rectangle 307" d="M8.02734 40.1406L8.02734 24.0843M10.7034 24.0843L10.7034 40.1406" stroke="#FF4500" stroke-width="0.6"/>
<path id="Rectangle 314" d="M18.7324 40.1406V24.0843M21.4085 24.0843V40.1406" stroke="#FF4500" stroke-width="0.6"/>
<path id="Rectangle 320" d="M29.4375 40.1406V24.0843M32.1136 24.0843V40.1406" stroke="#FF4500" stroke-width="0.6"/>
<path id="Rectangle 309" d="M16.5918 28.9014H5.88757M5.88757 26.2253H16.5918" stroke="#FF4500" stroke-width="0.6"/>
<path id="Rectangle 315" d="M27.2969 28.9014H16.5926M16.5926 26.2253H27.2969" stroke="#FF4500" stroke-width="0.6"/>
<path id="Rectangle 321" d="M32.6484 28.9014H27.2963M27.2963 26.2253H32.6484" stroke="#FF4500" stroke-width="0.6"/>
<path id="Rectangle 310" d="M16.5918 34.2534H5.88757M5.88757 31.5774H16.5918" stroke="#FF4500" stroke-width="0.6"/>
<path id="Rectangle 316" d="M27.2969 34.2534H16.5926M16.5926 31.5774H27.2969" stroke="#FF4500" stroke-width="0.6"/>
<path id="Rectangle 322" d="M32.6484 34.2534H27.2963M27.2963 31.5774H32.6484" stroke="#FF4500" stroke-width="0.6"/>
<path id="Rectangle 311" d="M5.88757 36.9297H16.5918" stroke="#FF4500" stroke-width="0.6"/>
<path id="Rectangle 317" d="M16.5926 36.9297H27.2969" stroke="#FF4500" stroke-width="0.6"/>
<path id="Rectangle 323" d="M27.2963 36.9297H32.6484" stroke="#FF4500" stroke-width="0.6"/>
<path id="Rectangle 312" d="M5.88757 39.6055H16.5918" stroke="#FF4500" stroke-width="0.6"/>
<path id="Rectangle 308" d="M13.3789 40.1406L13.3789 24.0843M16.055 24.0843V40.1406" stroke="#FF4500" stroke-width="0.6"/>
<path id="Rectangle 318" d="M24.0859 40.1406V24.0843M26.762 24.0843V40.1406" stroke="#FF4500" stroke-width="0.6"/>
<path id="Rectangle 305" d="M7.25703 13.1452H30.2063V15.7565H19.8021H18.4641H7.25703V13.1452Z" stroke="#FF4500" stroke-width="0.6"/>
<circle id="Ellipse 132" cx="6.42193" cy="3.74664" r="0.535211" fill="#FF4500"/>
<circle id="Ellipse 133" cx="8.56256" cy="3.74664" r="0.535211" fill="#FF4500"/>
<circle id="Ellipse 134" cx="10.7051" cy="3.74664" r="0.535211" fill="#FF4500"/>
<rect id="Rectangle 324" x="5.65156" y="45.1872" width="2.07606" height="2.61127" rx="0.7" stroke="#FF4500" stroke-width="0.6"/>
<rect id="Rectangle 325" x="29.7375" y="45.1872" width="2.07606" height="2.61127" rx="0.7" stroke="#FF4500" stroke-width="0.6"/>
</g>
</g>
</svg>
