<svg width="182" height="184" viewBox="0 0 182 184" fill="none" xmlns="http://www.w3.org/2000/svg">
<path d="M1 82L5.12364 49.4602L47.5382 6.17479L82 2" stroke="white" stroke-width="2"/>
<path d="M72 145L75.7673 115.307M146 72L114.516 75.8095L112.256 78.2317" stroke="white" stroke-width="2"/>
<path d="M51.8347 98.551L34.3721 78.8965L78.5794 34.458L96.6186 54.691L51.8347 98.551Z" stroke="white" stroke-width="2"/>
<path d="M118.389 160.561L102.381 142.79L143.07 102.447L159.609 120.744L118.389 160.561Z" stroke="white" stroke-width="2"/>
<path d="M78 35.0226L82.6829 3L102 21.8023L97.0244 55" stroke="white" stroke-width="2"/>
<path d="M142 102.559L146.488 73L165 90.3559L160.232 121" stroke="white" stroke-width="2"/>
<path d="M34.3223 78.9077L2.02803 81.9422L19.7511 102.43L52.0219 99.3957" stroke="white" stroke-width="2"/>
<path d="M102.396 143.025L72.787 145.808L89.0364 164.592L118.624 161.81" stroke="white" stroke-width="2"/>
<path d="M55 96.4956L90.4904 125C90.4904 125 104.863 123.531 115.128 112.07C125.394 100.61 123.928 90.0307 123.928 90.0307L94.0101 58" stroke="white" stroke-width="2"/>
<path d="M101.927 66C101.927 66 103.415 76.5882 92.9985 88.0588C82.5825 99.5294 68 101 68 101" stroke="white" stroke-width="2"/>
<path d="M108.929 74C108.929 74 110.373 84.5882 100.263 96.0588C90.1536 107.529 76 109 76 109" stroke="white" stroke-width="2"/>
<path d="M115.929 82C115.929 82 117.373 92.5882 107.263 104.059C97.1536 115.529 83 117 83 117" stroke="white" stroke-width="2"/>
<path d="M122 159.185L149.869 182C149.869 182 160.246 180.815 170.623 169.259C181 157.704 181 151.778 181 151.778L155.799 126" stroke="white" stroke-width="2"/>
</svg>
