<svg width="127" height="15" viewBox="0 0 127 15" fill="none" xmlns="http://www.w3.org/2000/svg">
<g id="Subtract">
<mask id="path-1-inside-1_343_1224" fill="white">
<path fill-rule="evenodd" clip-rule="evenodd" d="M86.8629 1.17109C86.8629 1.00541 86.7286 0.871094 86.5629 0.871094H83.7905C83.6248 0.871094 83.4905 1.00541 83.4905 1.17109V11.609C83.4905 11.7747 83.3561 11.909 83.1905 11.909H75.3585C75.1929 11.909 75.0585 11.7747 75.0585 11.609V1.17109C75.0585 1.00541 74.9242 0.871094 74.7585 0.871094H71.9857C71.82 0.871094 71.6857 1.00541 71.6857 1.17109V11.609C71.6857 11.7747 71.5514 11.909 71.3857 11.909H65.2402C65.0745 11.909 64.9402 11.7747 64.9402 11.609V1.17109C64.9402 1.00541 64.8059 0.871094 64.6402 0.871094H61.8665C61.7008 0.871094 61.5665 1.00541 61.5665 1.17109V11.609C61.5665 11.7747 61.4322 11.909 61.2665 11.909H53.4346C53.2689 11.909 53.1346 11.7747 53.1346 11.609V1.17109C53.1346 1.00541 53.0003 0.871094 52.8346 0.871094H50.0622C49.8965 0.871094 49.7622 1.00541 49.7622 1.17109V11.609C49.7622 11.7747 49.6278 11.909 49.4622 11.909H41.6302C41.4646 11.909 41.3302 11.7747 41.3302 11.609V1.17109C41.3302 1.00541 41.1959 0.871094 41.0302 0.871094H38.2574C38.0917 0.871094 37.9574 1.00541 37.9574 1.17109V11.609C37.9574 11.7747 37.8231 11.909 37.6574 11.909H31.5119C31.3462 11.909 31.2119 11.7747 31.2119 11.609V1.17109C31.2119 1.00541 31.0776 0.871094 30.9119 0.871094H22.8599C22.8077 0.871094 22.7563 0.884718 22.711 0.910621L0.15166 13.8017C-0.115445 13.9543 -0.00713803 14.3622 0.300501 14.3622H126.206C126.514 14.3622 126.622 13.9543 126.355 13.8017L103.796 0.910622C103.75 0.884719 103.699 0.871094 103.647 0.871094H95.5948C95.4291 0.871094 95.2948 1.00541 95.2948 1.17109V11.609C95.2948 11.7747 95.1605 11.909 94.9948 11.909H87.1629C86.9972 11.909 86.8629 11.7747 86.8629 11.609V1.17109Z"/>
</mask>
<path d="M103.796 0.910622L104.788 -0.825865V-0.825865L103.796 0.910622ZM126.355 13.8017L125.363 15.5382L126.355 13.8017ZM0.15166 13.8017L-0.840618 12.0652L0.15166 13.8017ZM22.711 0.910621L21.7187 -0.825865L22.711 0.910621ZM86.5629 -1.12891H83.7905V2.87109H86.5629V-1.12891ZM81.4905 1.17109V11.609H85.4905V1.17109H81.4905ZM83.1905 9.90904H75.3586V13.909H83.1905V9.90904ZM77.0585 11.609V1.17109H73.0585V11.609H77.0585ZM74.7585 -1.12891H71.9857V2.87109H74.7585V-1.12891ZM69.6857 1.17109V11.609H73.6857V1.17109H69.6857ZM71.3857 9.90904H65.2402V13.909H71.3857V9.90904ZM66.9402 11.609V1.17109H62.9402V11.609H66.9402ZM64.6402 -1.12891H61.8665V2.87109H64.6402V-1.12891ZM59.5665 1.17109V11.609H63.5665V1.17109H59.5665ZM61.2665 9.90904H53.4346V13.909H61.2665V9.90904ZM55.1346 11.609V1.17109H51.1346V11.609H55.1346ZM52.8346 -1.12891H50.0622V2.87109H52.8346V-1.12891ZM47.7622 1.17109V11.609H51.7622V1.17109H47.7622ZM49.4622 9.90904H41.6302V13.909H49.4622V9.90904ZM43.3302 11.609V1.17109H39.3302V11.609H43.3302ZM41.0302 -1.12891H38.2574V2.87109H41.0302V-1.12891ZM35.9574 1.17109V11.609H39.9574V1.17109H35.9574ZM37.6574 9.90904H31.5119V13.909H37.6574V9.90904ZM33.2119 11.609V1.17109H29.2119V11.609H33.2119ZM30.9119 -1.12891H22.8599V2.87109H30.9119V-1.12891ZM21.7187 -0.825865L-0.840618 12.0652L1.14394 15.5382L23.7033 2.64711L21.7187 -0.825865ZM0.300501 16.3622H126.206V12.3622H0.300501V16.3622ZM127.347 12.0652L104.788 -0.825865L102.803 2.64711L125.363 15.5382L127.347 12.0652ZM103.647 -1.12891H95.5948V2.87109H103.647V-1.12891ZM93.2948 1.17109V11.609H97.2948V1.17109H93.2948ZM94.9948 9.90904H87.1629V13.909H94.9948V9.90904ZM88.8629 11.609V1.17109H84.8629V11.609H88.8629ZM87.1629 9.90904C88.1018 9.90904 88.8629 10.6702 88.8629 11.609H84.8629C84.8629 12.8793 85.8926 13.909 87.1629 13.909V9.90904ZM93.2948 11.609C93.2948 10.6702 94.0559 9.90904 94.9948 9.90904V13.909C96.2651 13.909 97.2948 12.8793 97.2948 11.609H93.2948ZM95.5948 -1.12891C94.3245 -1.12891 93.2948 -0.0991649 93.2948 1.17109H97.2948C97.2948 2.10998 96.5337 2.87109 95.5948 2.87109V-1.12891ZM104.788 -0.825865C104.44 -1.02445 104.047 -1.12891 103.647 -1.12891V2.87109C103.351 2.87109 103.06 2.79388 102.803 2.64711L104.788 -0.825865ZM126.206 16.3622C128.565 16.3622 129.395 13.2353 127.347 12.0652L125.363 15.5382C123.849 14.6733 124.463 12.3622 126.206 12.3622V16.3622ZM-0.840618 12.0652C-2.8884 13.2354 -2.0581 16.3622 0.300501 16.3622V12.3622C2.04382 12.3622 2.65751 14.6733 1.14394 15.5382L-0.840618 12.0652ZM22.8599 -1.12891C22.4596 -1.12891 22.0663 -1.02445 21.7187 -0.825865L23.7033 2.64711C23.4464 2.79389 23.1557 2.87109 22.8599 2.87109V-1.12891ZM33.2119 1.17109C33.2119 -0.099158 32.1821 -1.12891 30.9119 -1.12891V2.87109C29.973 2.87109 29.2119 2.10998 29.2119 1.17109H33.2119ZM31.5119 9.90904C32.4508 9.90904 33.2119 10.6702 33.2119 11.609H29.2119C29.2119 12.8793 30.2416 13.909 31.5119 13.909V9.90904ZM35.9574 11.609C35.9574 10.6702 36.7185 9.90904 37.6574 9.90904V13.909C38.9277 13.909 39.9574 12.8793 39.9574 11.609H35.9574ZM38.2574 -1.12891C36.9872 -1.12891 35.9574 -0.0991609 35.9574 1.17109H39.9574C39.9574 2.10998 39.1963 2.87109 38.2574 2.87109V-1.12891ZM43.3302 1.17109C43.3302 -0.0991582 42.3005 -1.12891 41.0302 -1.12891V2.87109C40.0914 2.87109 39.3302 2.10998 39.3302 1.17109H43.3302ZM41.6302 9.90904C42.5691 9.90904 43.3302 10.6702 43.3302 11.609H39.3302C39.3302 12.8793 40.36 13.909 41.6302 13.909V9.90904ZM47.7622 11.609C47.7622 10.6702 48.5233 9.90904 49.4622 9.90904V13.909C50.7324 13.909 51.7622 12.8793 51.7622 11.609H47.7622ZM50.0622 -1.12891C48.7919 -1.12891 47.7622 -0.0991615 47.7622 1.17109H51.7622C51.7622 2.10998 51.001 2.87109 50.0622 2.87109V-1.12891ZM55.1346 1.17109C55.1346 -0.0991581 54.1048 -1.12891 52.8346 -1.12891V2.87109C51.8957 2.87109 51.1346 2.10998 51.1346 1.17109H55.1346ZM53.4346 9.90904C54.3735 9.90904 55.1346 10.6702 55.1346 11.609H51.1346C51.1346 12.8793 52.1643 13.909 53.4346 13.909V9.90904ZM59.5665 11.609C59.5665 10.6702 60.3276 9.90904 61.2665 9.90904V13.909C62.5367 13.909 63.5665 12.8793 63.5665 11.609H59.5665ZM61.8665 -1.12891C60.5962 -1.12891 59.5665 -0.0991615 59.5665 1.17109H63.5665C63.5665 2.10998 62.8054 2.87109 61.8665 2.87109V-1.12891ZM66.9402 1.17109C66.9402 -0.0991581 65.9104 -1.12891 64.6402 -1.12891V2.87109C63.7013 2.87109 62.9402 2.10998 62.9402 1.17109H66.9402ZM65.2402 9.90904C66.1791 9.90904 66.9402 10.6702 66.9402 11.609H62.9402C62.9402 12.8793 63.9699 13.909 65.2402 13.909V9.90904ZM69.6857 11.609C69.6857 10.6702 70.4468 9.90904 71.3857 9.90904V13.909C72.656 13.909 73.6857 12.8793 73.6857 11.609H69.6857ZM71.9857 -1.12891C70.7155 -1.12891 69.6857 -0.0991609 69.6857 1.17109H73.6857C73.6857 2.10998 72.9246 2.87109 71.9857 2.87109V-1.12891ZM77.0585 1.17109C77.0585 -0.0991582 76.0288 -1.12891 74.7585 -1.12891V2.87109C73.8197 2.87109 73.0585 2.10998 73.0585 1.17109H77.0585ZM75.3586 9.90904C76.2974 9.90904 77.0585 10.6702 77.0585 11.609H73.0585C73.0585 12.8793 74.0883 13.909 75.3586 13.909V9.90904ZM81.4905 11.609C81.4905 10.6702 82.2516 9.90904 83.1905 9.90904V13.909C84.4607 13.909 85.4905 12.8793 85.4905 11.609H81.4905ZM83.7905 -1.12891C82.5202 -1.12891 81.4905 -0.0991615 81.4905 1.17109H85.4905C85.4905 2.10998 84.7293 2.87109 83.7905 2.87109V-1.12891ZM86.5629 2.87109C85.624 2.87109 84.8629 2.10998 84.8629 1.17109H88.8629C88.8629 -0.0991581 87.8331 -1.12891 86.5629 -1.12891V2.87109Z" fill="#FF4500" mask="url(#path-1-inside-1_343_1224)"/>
</g>
</svg>
