<svg width="63" height="63" viewBox="0 0 63 63" fill="none" xmlns="http://www.w3.org/2000/svg">
<path d="M57.4158 37.9083L57.2667 36.4158L57.2178 36.4206L57.1692 36.4287L57.4158 37.9083ZM57.4158 37.9083L57.5652 39.4011L57.6141 39.396L57.6624 39.3879L57.4158 37.9083ZM45.2937 54.3552L46.2438 53.1942L46.2309 53.184L45.2937 54.3552ZM45.2937 54.3552L44.3439 55.5162L44.3568 55.5264L45.2937 54.3552ZM17.7062 54.3567L16.7564 53.1957L16.7326 53.2152L16.7097 53.2356L17.7062 54.3567ZM17.7062 54.3567L18.656 55.5174L18.6798 55.4982L18.7027 55.4778L17.7062 54.3567ZM5.58465 25.0915V23.5915H5.50983L5.4354 23.599L5.58465 25.0915ZM5.58465 25.0915L5.58468 26.5914H5.6595L5.73393 26.5842L5.58465 25.0915ZM39.4011 5.43507C39.3378 4.80438 39.2841 4.25835 39.2085 3.8088C39.1305 3.34446 39.0153 2.88498 38.7843 2.43726L36.1182 3.8124C36.1491 3.87261 36.1974 3.9924 36.2499 4.30557C36.3051 4.63347 36.3489 5.06325 36.4158 5.73357L39.4011 5.43507ZM39.9858 9.04401C39.9519 8.99949 39.8418 8.81616 39.7263 8.17353C39.6132 7.54521 39.5265 6.69153 39.4011 5.43507L36.4158 5.73357C36.5364 6.93969 36.6348 7.93296 36.7737 8.70483C36.9099 9.46239 37.1193 10.2325 37.6005 10.8636L39.9858 9.04401ZM41.3784 9.62082C40.8444 9.69267 40.3125 9.47247 39.9858 9.04401L37.6005 10.8636C38.5812 12.149 40.176 12.8096 41.7783 12.594L41.3784 9.62082ZM44.3439 7.48245C43.3665 8.28207 42.7017 8.82456 42.1776 9.18888C41.6412 9.56151 41.4339 9.61335 41.3784 9.62082L41.7783 12.594C42.5649 12.4882 43.2576 12.0917 43.8894 11.6524C44.5335 11.2048 45.3054 10.5719 46.2435 9.80433L44.3439 7.48245ZM46.8996 5.7987C46.4196 5.952 46.0131 6.19536 45.6297 6.46857C45.2583 6.73308 44.8344 7.08111 44.3439 7.48245L46.2435 9.80433C46.7649 9.37773 47.0997 9.10479 47.3706 8.91186C47.6292 8.7276 47.748 8.67702 47.8125 8.65641L46.8996 5.7987ZM50.058 5.95623C49.059 5.5233 47.9367 5.46732 46.8996 5.7987L47.8125 8.65641C48.1581 8.54595 48.5322 8.56461 48.8652 8.70891L50.058 5.95623ZM52.4334 7.88595C51.9855 7.43775 51.5979 7.04925 51.2547 6.74913C50.9004 6.43914 50.5203 6.15651 50.058 5.95623L48.8652 8.70891C48.9276 8.73585 49.0407 8.79801 49.2795 9.00708C49.53 9.22602 49.836 9.53091 50.3121 10.0073L52.4334 7.88595ZM55.1139 10.5663L52.4334 7.88595L50.3121 10.0073L52.9926 12.6877L55.1139 10.5663ZM57.0438 12.9419C56.8434 12.4796 56.5608 12.0994 56.2509 11.7451C55.9506 11.402 55.5621 11.0145 55.1139 10.5663L52.9926 12.6877C53.469 13.164 53.7738 13.47 53.9928 13.7203C54.2019 13.9593 54.264 14.0725 54.291 14.1347L57.0438 12.9419ZM57.2013 16.1004C57.5325 15.0632 57.4767 13.941 57.0438 12.9419L54.291 14.1347C54.4353 14.4677 54.4539 14.8417 54.3435 15.1875L57.2013 16.1004ZM55.5174 18.6562C55.9188 18.1656 56.2668 17.7415 56.5314 17.3702C56.8044 16.9867 57.048 16.5803 57.2013 16.1004L54.3435 15.1875C54.3228 15.252 54.2724 15.3708 54.0879 15.6294C53.895 15.9002 53.622 16.235 53.1954 16.7564L55.5174 18.6562ZM53.379 21.6216C53.3865 21.5662 53.4384 21.3587 53.811 20.8225C54.1752 20.2983 54.7179 19.6335 55.5174 18.6562L53.1954 16.7564C52.428 17.6946 51.795 18.4664 51.3474 19.1105C50.9082 19.7425 50.5116 20.435 50.4057 21.2217L53.379 21.6216ZM53.9559 23.0142C53.5272 22.6873 53.3073 22.1557 53.379 21.6216L50.4057 21.2217C50.1903 22.824 50.8509 24.4188 52.1361 25.3993L53.9559 23.0142ZM57.5649 23.599C56.3082 23.4734 55.4547 23.3869 54.8262 23.2738C54.1836 23.1581 54.0003 23.0481 53.9559 23.0142L52.1361 25.3993C52.7673 25.8807 53.5374 26.0901 54.2949 26.2263C55.0668 26.3652 56.0601 26.4636 57.2664 26.5842L57.5649 23.599ZM60.5628 24.2156C60.1152 23.9847 59.6556 23.8693 59.1912 23.7914C58.7415 23.7159 58.1955 23.6621 57.5649 23.599L57.2664 26.5842C57.9366 26.6511 58.3665 26.6949 58.6944 26.7501C59.0076 26.8026 59.1273 26.8509 59.1876 26.8818L60.5628 24.2156ZM62.6847 26.5602C62.2845 25.5477 61.5306 24.7148 60.5628 24.2156L59.1876 26.8818C59.5101 27.0483 59.7615 27.3258 59.895 27.6633L62.6847 26.5602ZM63 29.6046C63 28.971 63.0009 28.4223 62.9703 27.9672C62.9391 27.4974 62.8701 27.0288 62.6847 26.5602L59.895 27.6633C59.9199 27.7263 59.9559 27.8505 59.9772 28.1673C59.9991 28.4991 60 28.9311 60 29.6046H63ZM63 33.3957V29.6046H60V33.3957H63ZM62.685 36.4392C62.8701 35.9709 62.9391 35.5023 62.9703 35.0325C63.0009 34.578 63 34.0293 63 33.3957H60C60 34.0692 59.9991 34.5009 59.9772 34.8327C59.9559 35.1495 59.9199 35.2734 59.895 35.3364L62.685 36.4392ZM60.5625 38.7846C61.5303 38.2854 62.2845 37.452 62.685 36.4392L59.895 35.3364C59.7615 35.6742 59.5101 35.9517 59.1876 36.1182L60.5625 38.7846ZM57.5652 39.4011C58.1958 39.3378 58.7415 39.2841 59.1912 39.2085C59.6553 39.1308 60.1149 39.0153 60.5625 38.7846L59.1876 36.1182C59.1273 36.1494 59.0076 36.1974 58.6944 36.2499C58.3665 36.3051 57.9369 36.3489 57.2667 36.4158L57.5652 39.4011ZM53.9571 39.9855C54.0018 39.9516 54.1851 39.8415 54.8274 39.726C55.4556 39.6129 56.3091 39.5265 57.5652 39.4011L57.2667 36.4158C56.0607 36.5364 55.068 36.6345 54.2961 36.7734C53.5389 36.9096 52.7691 37.1187 52.1382 37.5999L53.9571 39.9855ZM53.3802 41.3787C53.3082 40.8444 53.5284 40.3125 53.9571 39.9855L52.1382 37.5999C50.8521 38.5806 50.1912 40.1763 50.4069 41.7792L53.3802 41.3787ZM55.518 44.343C54.7185 43.3659 54.1764 42.7014 53.8119 42.1773C53.4396 41.6415 53.3877 41.4339 53.3802 41.3787L50.4069 41.7792C50.5131 42.5655 50.9094 43.2576 51.3486 43.8894C51.7959 44.5332 52.4286 45.3048 53.196 46.2426L55.518 44.343ZM57.2013 46.8978C57.0477 46.4181 56.8044 46.0116 56.5314 45.6285C56.2671 45.2574 55.9191 44.8332 55.518 44.343L53.196 46.2426C53.6223 46.7637 53.8953 47.0985 54.0882 47.3691C54.2724 47.6277 54.3228 47.7465 54.3435 47.811L57.2013 46.8978ZM57.0435 50.0574C57.4767 49.0578 57.5328 47.9352 57.2013 46.8978L54.3435 47.811C54.4542 48.1569 54.4353 48.531 54.291 48.8643L57.0435 50.0574ZM55.1145 52.4319C55.5624 51.984 55.9509 51.5967 56.2509 51.2538C56.5608 50.8995 56.8434 50.5194 57.0435 50.0574L54.291 48.8643C54.264 48.9264 54.2019 49.0395 53.9928 49.2783C53.7741 49.5285 53.4693 49.8345 52.9932 50.3106L55.1145 52.4319ZM52.4337 55.1127L55.1145 52.4319L52.9932 50.3106L50.3124 52.9914L52.4337 55.1127ZM50.0583 57.0423C50.5203 56.8422 50.9007 56.5596 51.255 56.2494C51.5982 55.9494 51.9855 55.5609 52.4337 55.1127L50.3124 52.9914C49.836 53.4678 49.53 53.7726 49.2798 53.9916C49.0407 54.2007 48.9276 54.2628 48.8655 54.2898L50.0583 57.0423ZM46.8996 57.2001C47.9367 57.5313 49.059 57.4755 50.0583 57.0423L48.8655 54.2898C48.5325 54.4341 48.1584 54.4527 47.8125 54.3423L46.8996 57.2001ZM44.3439 55.5162C44.8344 55.9176 45.2586 56.2656 45.6297 56.5302C46.0134 56.8032 46.4196 57.0468 46.8996 57.2001L47.8125 54.3423C47.748 54.3216 47.6292 54.2712 47.3706 54.0867C47.0997 53.8938 46.7652 53.6208 46.2438 53.1942L44.3439 55.5162ZM41.3784 53.3778C41.4339 53.3853 41.6415 53.4372 42.1776 53.8098C42.7017 54.174 43.3665 54.7167 44.3439 55.5162L46.2438 53.1942C45.3057 52.4268 44.5338 51.7938 43.8897 51.3462C43.2576 50.907 42.5652 50.5104 41.7786 50.4045L41.3784 53.3778ZM39.9858 53.9547C40.3128 53.5263 40.8444 53.3061 41.3784 53.3778L41.7786 50.4045C40.176 50.1891 38.5812 50.8497 37.6008 52.1352L39.9858 53.9547ZM39.4011 57.5643C39.5268 56.3076 39.6132 55.4538 39.7263 54.8253C39.8421 54.1824 39.9519 53.9991 39.9858 53.9547L37.6008 52.1352C37.1193 52.7661 36.9099 53.5365 36.7737 54.294C36.6348 55.0659 36.5367 56.0595 36.4158 57.2658L39.4011 57.5643ZM38.7843 60.5631C39.0153 60.1155 39.1305 59.6556 39.2085 59.1912C39.2841 58.7415 39.3381 58.1952 39.4011 57.5643L36.4158 57.2658C36.3489 57.9363 36.3051 58.3662 36.2499 58.6944C36.1974 59.0076 36.1491 59.1276 36.1182 59.1876L38.7843 60.5631ZM36.4401 62.6847C37.4523 62.2842 38.2851 61.5306 38.7843 60.5631L36.1182 59.1876C35.9517 59.5101 35.6742 59.7615 35.3367 59.895L36.4401 62.6847ZM33.3948 63C34.029 63 34.5777 63.0009 35.0328 62.9703C35.5026 62.9391 35.9715 62.8698 36.4401 62.6847L35.3367 59.895C35.2737 59.9199 35.1498 59.9559 34.8327 59.9772C34.5009 59.9991 34.0689 60 33.3948 60V63ZM29.6046 63H33.3948V60H29.6046V63ZM26.5602 62.6847C27.0288 62.8701 27.4974 62.9391 27.9672 62.9703C28.4223 63.0009 28.971 63 29.6046 63V60C28.9311 60 28.4991 59.9991 28.1673 59.9772C27.8505 59.9559 27.7263 59.9199 27.6633 59.895L26.5602 62.6847ZM24.2156 60.5628C24.7147 61.5306 25.5477 62.2845 26.5602 62.6847L27.6633 59.895C27.3258 59.7615 27.0483 59.5101 26.8818 59.1876L24.2156 60.5628ZM23.599 57.5649C23.6621 58.1955 23.7159 58.7415 23.7914 59.1912C23.8693 59.6556 23.9847 60.1152 24.2156 60.5628L26.8818 59.1876C26.8509 59.1273 26.8026 59.0076 26.7501 58.6944C26.6949 58.3665 26.6511 57.9366 26.5842 57.2664L23.599 57.5649ZM23.0142 53.9559C23.0481 54.0003 23.1581 54.1836 23.2738 54.8262C23.3869 55.4547 23.4733 56.3085 23.599 57.5649L26.5842 57.2664C26.4636 56.0601 26.3652 55.0668 26.2263 54.2949C26.0901 53.5374 25.8807 52.7673 25.3993 52.1361L23.0142 53.9559ZM21.6217 53.379C22.1558 53.3073 22.6873 53.5275 23.0142 53.9559L25.3993 52.1361C24.4187 50.8509 22.824 50.1903 21.2218 50.4057L21.6217 53.379ZM18.656 55.5174C19.6334 54.7179 20.2983 54.1752 20.8225 53.811C21.3587 53.4384 21.5662 53.3865 21.6217 53.379L21.2218 50.4057C20.4351 50.5116 19.7425 50.9082 19.1105 51.3474C18.4664 51.795 17.6946 52.428 16.7564 53.1957L18.656 55.5174ZM16.1002 57.2013C16.5801 57.048 16.9865 56.8047 17.37 56.5314C17.7413 56.2671 18.1655 55.9188 18.656 55.5174L16.7564 53.1957C16.235 53.6223 15.9001 53.8953 15.6293 54.0882C15.3706 54.2724 15.2519 54.3231 15.1873 54.3435L16.1002 57.2013ZM12.9418 57.0438C13.9409 57.4767 15.063 57.5328 16.1002 57.2013L15.1873 54.3435C14.8416 54.4542 14.4675 54.4353 14.1345 54.291L12.9418 57.0438ZM10.5662 55.1139C11.0144 55.5621 11.4018 55.9509 11.7449 56.2509C12.0993 56.5608 12.4796 56.8437 12.9418 57.0438L14.1345 54.291C14.0723 54.2643 13.9592 54.2019 13.7202 53.9931C13.4699 53.7741 13.1639 53.469 12.6875 52.9926L10.5662 55.1139ZM7.88583 52.4337L10.5662 55.1139L12.6875 52.9926L10.0072 50.3124L7.88583 52.4337ZM5.95605 50.058C6.15636 50.5203 6.43896 50.9007 6.74898 51.255C7.04913 51.5982 7.43766 51.9855 7.88583 52.4337L10.0072 50.3124C9.53079 49.836 9.22587 49.53 9.00696 49.2798C8.79786 49.0407 8.7357 48.9276 8.70876 48.8655L5.95605 50.058ZM5.79852 46.8996C5.4672 47.937 5.52318 49.059 5.95605 50.058L8.70876 48.8655C8.56446 48.5325 8.54583 48.1584 8.65626 47.8125L5.79852 46.8996ZM7.48239 44.3439C7.08099 44.8344 6.73296 45.2586 6.46842 45.6297C6.19521 46.0134 5.95185 46.4199 5.79852 46.8996L8.65626 47.8125C8.67687 47.748 8.72745 47.6292 8.91174 47.3706C9.10467 47.0997 9.37764 46.7649 9.80424 46.2435L7.48239 44.3439ZM9.62082 41.3784C9.61335 41.4339 9.56148 41.6412 9.18885 42.1776C8.8245 42.7017 8.28201 43.3665 7.48239 44.3439L9.80424 46.2435C10.5718 45.3054 11.2047 44.5335 11.6523 43.8894C12.0916 43.2576 12.4882 42.5649 12.594 41.7783L9.62082 41.3784ZM9.04398 39.9858C9.47247 40.3125 9.69264 40.8441 9.62082 41.3784L12.594 41.7783C12.8096 40.176 12.149 38.5812 10.8636 37.6005L9.04398 39.9858ZM5.43504 39.4011C6.69153 39.5265 7.54521 39.6132 8.1735 39.7263C8.81613 39.8418 8.99949 39.9519 9.04398 39.9858L10.8636 37.6005C10.2325 37.1193 9.46239 36.9099 8.70483 36.7737C7.93296 36.6348 6.93966 36.5364 5.73354 36.4158L5.43504 39.4011ZM2.43726 38.7843C2.88498 39.0153 3.34446 39.1305 3.8088 39.2085C4.25835 39.2841 4.80435 39.3378 5.43504 39.4011L5.73354 36.4158C5.06322 36.3489 4.63347 36.3051 4.30557 36.2499C3.9924 36.1974 3.87264 36.1491 3.81243 36.1182L2.43726 38.7843ZM0.315212 36.4395C0.715562 37.4523 1.46952 38.2854 2.43726 38.7843L3.81243 36.1182C3.48984 35.9517 3.23853 35.6742 3.10506 35.3367L0.315212 36.4395ZM1.85845e-06 33.3954C1.85845e-06 34.0293 -0.000777986 34.5777 0.029612 35.0328C0.060992 35.5023 0.129992 35.9712 0.315212 36.4395L3.10506 35.3367C3.08016 35.2734 3.0441 35.1495 3.02292 34.8327C3.00078 34.5009 3 34.0689 3 33.3954H1.85845e-06ZM1.85845e-06 29.6049V33.3954H3V29.6049H1.85845e-06ZM0.315392 26.5599C0.130052 27.0285 0.061022 27.4974 0.029612 27.9672C-0.000777986 28.4223 1.85845e-06 28.971 1.85845e-06 29.6049H3C3 28.9311 3.00078 28.4991 3.02295 28.1673C3.04413 27.8502 3.08019 27.7263 3.10512 27.6633L0.315392 26.5599ZM2.43687 24.2158C1.46946 24.7149 0.715712 25.5477 0.315392 26.5599L3.10512 27.6633C3.23856 27.3258 3.48981 27.0483 3.81228 26.8818L2.43687 24.2158ZM5.4354 23.599C4.80456 23.6621 4.25841 23.7159 3.80871 23.7914C3.34428 23.8694 2.88468 23.9848 2.43687 24.2158L3.81228 26.8818C3.87252 26.8509 3.99228 26.8026 4.30554 26.7501C4.63356 26.6949 5.06343 26.6511 5.73393 26.5842L5.4354 23.599ZM9.0453 23.014C9.00078 23.0479 8.81742 23.158 8.17461 23.2737C7.54614 23.3868 6.69219 23.4733 5.4354 23.599L5.73393 26.5842C6.94038 26.4633 7.93392 26.3652 8.706 26.2263C9.46374 26.0898 10.2341 25.8804 10.8652 25.3989L9.0453 23.014ZM9.62196 21.6217C9.69372 22.1557 9.47358 22.6871 9.0453 23.014L10.8652 25.3989C12.1501 24.4184 12.8105 22.8241 12.5952 21.2222L9.62196 21.6217ZM7.4829 18.6553C8.28279 19.633 8.82546 20.298 9.1899 20.8224C9.56268 21.3588 9.61452 21.5662 9.62196 21.6217L12.5952 21.2222C12.4895 20.4353 12.0928 19.7426 11.6534 19.1104C11.2057 18.4661 10.5726 17.6941 9.80478 16.7556L7.4829 18.6553ZM5.79849 16.0984C5.95179 16.5785 6.19524 16.9851 6.46854 17.3688C6.73317 17.7402 7.08135 18.1645 7.4829 18.6553L9.80478 16.7556C9.37797 16.234 9.10491 15.899 8.91189 15.6281C8.72754 15.3693 8.67696 15.2505 8.65635 15.1859L5.79849 16.0984ZM5.95596 12.9411C5.52336 13.9399 5.46741 15.0616 5.79849 16.0984L8.65635 15.1859C8.54601 14.8403 8.56464 14.4664 8.70882 14.1335L5.95596 12.9411ZM7.88634 10.5646C7.43799 11.013 7.04931 11.4005 6.74907 11.7438C6.43896 12.0983 6.15627 12.4787 5.95596 12.9411L8.70882 14.1335C8.73576 14.0713 8.79792 13.9581 9.00708 13.719C9.22608 13.4686 9.53112 13.1625 10.0077 12.6859L7.88634 10.5646ZM10.5663 7.88466L7.88634 10.5646L10.0077 12.6859L12.6876 10.006L10.5663 7.88466ZM12.9419 5.95482C12.4797 6.15513 12.0995 6.43773 11.7451 6.74775C11.402 7.0479 11.0145 7.43646 10.5663 7.88466L12.6876 10.006C13.164 9.52959 13.47 9.22467 13.7203 9.00573C13.9593 8.79663 14.0725 8.73447 14.1347 8.70753L12.9419 5.95482ZM16.1003 5.79729C15.0631 5.46597 13.941 5.52195 12.9419 5.95482L14.1347 8.70753C14.4677 8.56326 14.8417 8.5446 15.1874 8.65503L16.1003 5.79729ZM18.6565 7.48134C18.1658 7.07991 17.7416 6.73182 17.3702 6.46725C16.9867 6.19401 16.5802 5.95062 16.1003 5.79729L15.1874 8.65503C15.252 8.67564 15.3708 8.72622 15.6295 8.91054C15.9003 9.10353 16.2353 9.37653 16.7567 9.80322L18.6565 7.48134ZM21.6215 9.61962C21.5661 9.61215 21.3587 9.56028 20.8225 9.18765C20.2984 8.82333 19.6336 8.28087 18.6565 7.48134L16.7567 9.80322C17.6948 10.5707 18.4665 11.2035 19.1104 11.6511C19.7423 12.0903 20.4347 12.4869 21.2211 12.5928L21.6215 9.61962ZM23.0145 9.04266C22.6876 9.4713 22.1558 9.69156 21.6215 9.61962L21.2211 12.5928C22.8239 12.8086 24.4193 12.1478 25.4 10.8619L23.0145 9.04266ZM23.5991 5.43465C23.4734 6.69078 23.387 7.54422 23.274 8.17236C23.1583 8.81484 23.0484 8.99814 23.0145 9.04266L25.4 10.8619C25.881 10.2309 26.0904 9.46101 26.2266 8.70363C26.3655 7.93197 26.4636 6.93897 26.5842 5.73318L23.5991 5.43465ZM24.2154 2.43765C23.9846 2.88525 23.8693 3.34467 23.7914 3.80886C23.7159 4.25829 23.6621 4.80417 23.5991 5.43465L26.5842 5.73318C26.6511 5.06304 26.6949 4.63341 26.7501 4.30557C26.8026 3.99249 26.8506 3.87276 26.8818 3.81255L24.2154 2.43765ZM26.5608 0.315032C25.548 0.715412 24.7145 1.46958 24.2154 2.43765L26.8818 3.81255C27.0483 3.48987 27.3258 3.23847 27.6636 3.105L26.5608 0.315032ZM29.6043 1.86221e-06C28.9707 1.86221e-06 28.422 -0.000778019 27.9675 0.029582C27.4977 0.060932 27.0291 0.129932 26.5608 0.315032L27.6636 3.105C27.7266 3.0801 27.8505 3.04407 28.1673 3.02292C28.4991 3.00078 28.9308 3 29.6043 3V1.86221e-06ZM33.3954 1.86221e-06H29.6043V3H33.3954V1.86221e-06ZM36.4395 0.315212C35.9712 0.129992 35.5023 0.060992 35.0328 0.029612C34.5777 -0.00077798 34.0293 1.86221e-06 33.3954 1.86221e-06V3C34.0689 3 34.5009 3.00078 34.8327 3.02292C35.1495 3.0441 35.2734 3.08016 35.3367 3.10506L36.4395 0.315212ZM38.7843 2.43726C38.2854 1.46952 37.4523 0.715562 36.4395 0.315212L35.3367 3.10506C35.6742 3.23853 35.9517 3.48984 36.1182 3.8124L38.7843 2.43726ZM42 31.5C42 37.299 37.299 42 31.5 42V45C38.9559 45 45 38.9559 45 31.5H42ZM31.5 21C37.299 21 42 25.701 42 31.5H45C45 24.0442 38.9559 18 31.5 18V21ZM21 31.5C21 25.701 25.701 21 31.5 21V18C24.0442 18 18 24.0442 18 31.5H21ZM31.5 42C25.701 42 21 37.299 21 31.5H18C18 38.9559 24.0442 45 31.5 45V42Z" fill="black"/>
</svg>
